<?xml version="1.0" encoding="UTF-8" standalone="no"?>
<!-- Created with Inkscape (http://www.inkscape.org/) -->
<svg
   xmlns:ns0="http://www.iki.fi/pav/software/textext/"
   xmlns:dc="http://purl.org/dc/elements/1.1/"
   xmlns:cc="http://creativecommons.org/ns#"
   xmlns:rdf="http://www.w3.org/1999/02/22-rdf-syntax-ns#"
   xmlns:svg="http://www.w3.org/2000/svg"
   xmlns="http://www.w3.org/2000/svg"
   xmlns:xlink="http://www.w3.org/1999/xlink"
   xmlns:sodipodi="http://sodipodi.sourceforge.net/DTD/sodipodi-0.dtd"
   xmlns:inkscape="http://www.inkscape.org/namespaces/inkscape"
   width="302.18106"
   height="163.9922"
   id="svg8031"
   sodipodi:version="0.32"
   inkscape:version="0.46"
   version="1.0"
   sodipodi:docname="MALU - Optimized.svg"
   inkscape:output_extension="org.inkscape.output.svg.inkscape">
  <sodipodi:namedview
     id="base"
     pagecolor="#ffffff"
     bordercolor="#666666"
     borderopacity="1.0"
     gridtolerance="10000"
     guidetolerance="10"
     objecttolerance="10"
     inkscape:pageopacity="0.0"
     inkscape:pageshadow="2"
     inkscape:zoom="2.1891284"
     inkscape:cx="151.09053"
     inkscape:cy="81.996099"
     inkscape:document-units="px"
     inkscape:current-layer="layer1"
     showgrid="false"
     inkscape:snap-global="true">
    <inkscape:grid
       type="xygrid"
       id="grid9992"
       units="mm"
       visible="true"
       enabled="true" />
  </sodipodi:namedview>
  <defs
     id="defs8033">
    <inkscape:perspective
       id="perspective8039"
       inkscape:persp3d-origin="372.04724 : 350.78739 : 1"
       inkscape:vp_z="744.09448 : 526.18109 : 1"
       inkscape:vp_y="0 : 1000 : 0"
       inkscape:vp_x="0 : 526.18109 : 1"
       sodipodi:type="inkscape:persp3d" />
    <inkscape:perspective
       sodipodi:type="inkscape:persp3d"
       inkscape:vp_x="0 : 526.18109 : 1"
       inkscape:vp_y="0 : 1000 : 0"
       inkscape:vp_z="744.09448 : 526.18109 : 1"
       inkscape:persp3d-origin="372.04724 : 350.78739 : 1"
       id="perspective7595" />
    <inkscape:perspective
       sodipodi:type="inkscape:persp3d"
       inkscape:vp_x="0 : 526.18109 : 1"
       inkscape:vp_y="0 : 1000 : 0"
       inkscape:vp_z="744.09448 : 526.18109 : 1"
       inkscape:persp3d-origin="372.04724 : 350.78739 : 1"
       id="perspective6218" />
    <inkscape:perspective
       sodipodi:type="inkscape:persp3d"
       inkscape:vp_x="0 : 526.18109 : 1"
       inkscape:vp_y="0 : 1000 : 0"
       inkscape:vp_z="744.09448 : 526.18109 : 1"
       inkscape:persp3d-origin="372.04724 : 350.78739 : 1"
       id="perspective5203" />
    <clipPath
       clipPathUnits="userSpaceOnUse"
       id="clipPath5207">
      <path
         d="M 24.4253,16.9492 L 303,16.9492 L 303,158.943 L 24.4253,158.943 L 24.4253,16.9492 z"
         id="path5209" />
    </clipPath>
    <clipPath
       clipPathUnits="userSpaceOnUse"
       id="clipPath5219">
      <path
         d="M 0,170.079 L 311.811,170.079 L 311.811,0 L 0,0 L 0,170.079 z"
         id="path5221" />
    </clipPath>
    <clipPath
       clipPathUnits="userSpaceOnUse"
       id="clipPath5229">
      <path
         d="M -19.0659,7.58691 L 19.0657,7.58691 L 19.0657,-7.58691 L -19.0659,-7.58691 L -19.0659,7.58691 z"
         id="path5231" />
    </clipPath>
    <clipPath
       clipPathUnits="userSpaceOnUse"
       id="clipPath5255">
      <path
         d="M -19.0659,7.58691 L 19.0657,7.58691 L 19.0657,-7.58691 L -19.0659,-7.58691 L -19.0659,7.58691 z"
         id="path5257" />
    </clipPath>
    <clipPath
       clipPathUnits="userSpaceOnUse"
       id="clipPath5281">
      <path
         d="M -19.0659,7.58691 L 19.0657,7.58691 L 19.0657,-7.58691 L -19.0659,-7.58691 L -19.0659,7.58691 z"
         id="path5283" />
    </clipPath>
    <clipPath
       clipPathUnits="userSpaceOnUse"
       id="clipPath5303">
      <path
         d="M 0,170.079 L 311.811,170.079 L 311.811,0 L 0,0 L 0,170.079 z"
         id="path5305" />
    </clipPath>
    <clipPath
       clipPathUnits="userSpaceOnUse"
       id="clipPath5313">
      <path
         d="M -24.1699,10.4224 L 24.1699,10.4224 L 24.1699,-10.4229 L -24.1699,-10.4229 L -24.1699,10.4224 z"
         id="path5315" />
    </clipPath>
    <clipPath
       clipPathUnits="userSpaceOnUse"
       id="clipPath5343">
      <path
         d="M -24.1699,10.4224 L 24.1699,10.4224 L 24.1699,-10.4229 L -24.1699,-10.4229 L -24.1699,10.4224 z"
         id="path5345" />
    </clipPath>
    <clipPath
       clipPathUnits="userSpaceOnUse"
       id="clipPath5373">
      <path
         d="M -24.1699,10.4224 L 24.1699,10.4224 L 24.1699,-10.4229 L -24.1699,-10.4229 L -24.1699,10.4224 z"
         id="path5375" />
    </clipPath>
    <clipPath
       clipPathUnits="userSpaceOnUse"
       id="clipPath5403">
      <path
         d="M -24.1699,10.4224 L 24.1699,10.4224 L 24.1699,-10.4229 L -24.1699,-10.4229 L -24.1699,10.4224 z"
         id="path5405" />
    </clipPath>
    <clipPath
       clipPathUnits="userSpaceOnUse"
       id="clipPath5433">
      <path
         d="M -24.1699,10.4224 L 24.1699,10.4224 L 24.1699,-10.4229 L -24.1699,-10.4229 L -24.1699,10.4224 z"
         id="path5435" />
    </clipPath>
    <clipPath
       clipPathUnits="userSpaceOnUse"
       id="clipPath5463">
      <path
         d="M -24.1699,10.4224 L 24.1699,10.4224 L 24.1699,-10.4229 L -24.1699,-10.4229 L -24.1699,10.4224 z"
         id="path5465" />
    </clipPath>
    <clipPath
       clipPathUnits="userSpaceOnUse"
       id="clipPath5493">
      <path
         d="M -24.1699,10.4224 L 24.1699,10.4224 L 24.1699,-10.4229 L -24.1699,-10.4229 L -24.1699,10.4224 z"
         id="path5495" />
    </clipPath>
    <clipPath
       clipPathUnits="userSpaceOnUse"
       id="clipPath5523">
      <path
         d="M -24.1699,10.4224 L 24.1699,10.4224 L 24.1699,-10.4229 L -24.1699,-10.4229 L -24.1699,10.4224 z"
         id="path5525" />
    </clipPath>
    <clipPath
       clipPathUnits="userSpaceOnUse"
       id="clipPath5553">
      <path
         d="M -24.1699,10.4224 L 24.1699,10.4224 L 24.1699,-10.4229 L -24.1699,-10.4229 L -24.1699,10.4224 z"
         id="path5555" />
    </clipPath>
    <clipPath
       clipPathUnits="userSpaceOnUse"
       id="clipPath5583">
      <path
         d="M -24.1699,10.4224 L 24.1699,10.4224 L 24.1699,-10.4229 L -24.1699,-10.4229 L -24.1699,10.4224 z"
         id="path5585" />
    </clipPath>
    <clipPath
       clipPathUnits="userSpaceOnUse"
       id="clipPath5631">
      <path
         d="M 0,170.079 L 311.811,170.079 L 311.811,0 L 0,0 L 0,170.079 z"
         id="path5633" />
    </clipPath>
    <clipPath
       clipPathUnits="userSpaceOnUse"
       id="clipPath5641">
      <path
         d="M -1.41748,1.41748 L 1.41748,1.41748 L 1.41748,-1.41699 L -1.41748,-1.41699 L -1.41748,1.41748 z"
         id="path5643" />
    </clipPath>
    <clipPath
       clipPathUnits="userSpaceOnUse"
       id="clipPath5655">
      <path
         d="M -1.41748,1.41748 L 1.41748,1.41748 L 1.41748,-1.41699 L -1.41748,-1.41699 L -1.41748,1.41748 z"
         id="path5657" />
    </clipPath>
    <clipPath
       clipPathUnits="userSpaceOnUse"
       id="clipPath5669">
      <path
         d="M -1.41748,1.41748 L 1.41748,1.41748 L 1.41748,-1.41699 L -1.41748,-1.41699 L -1.41748,1.41748 z"
         id="path5671" />
    </clipPath>
    <clipPath
       clipPathUnits="userSpaceOnUse"
       id="clipPath5683">
      <path
         d="M -1.41748,1.41748 L 1.41748,1.41748 L 1.41748,-1.41699 L -1.41748,-1.41699 L -1.41748,1.41748 z"
         id="path5685" />
    </clipPath>
    <clipPath
       clipPathUnits="userSpaceOnUse"
       id="clipPath5697">
      <path
         d="M -1.41748,1.41748 L 1.41748,1.41748 L 1.41748,-1.41699 L -1.41748,-1.41699 L -1.41748,1.41748 z"
         id="path5699" />
    </clipPath>
    <clipPath
       clipPathUnits="userSpaceOnUse"
       id="clipPath5711">
      <path
         d="M -1.41748,1.41748 L 1.41748,1.41748 L 1.41748,-1.41699 L -1.41748,-1.41699 L -1.41748,1.41748 z"
         id="path5713" />
    </clipPath>
    <clipPath
       clipPathUnits="userSpaceOnUse"
       id="clipPath5725">
      <path
         d="M -1.41748,1.41748 L 1.41748,1.41748 L 1.41748,-1.41699 L -1.41748,-1.41699 L -1.41748,1.41748 z"
         id="path5727" />
    </clipPath>
    <clipPath
       clipPathUnits="userSpaceOnUse"
       id="clipPath5739">
      <path
         d="M -1.41748,1.41748 L 1.41748,1.41748 L 1.41748,-1.41699 L -1.41748,-1.41699 L -1.41748,1.41748 z"
         id="path5741" />
    </clipPath>
    <clipPath
       clipPathUnits="userSpaceOnUse"
       id="clipPath5779">
      <path
         d="M 0,170.079 L 311.811,170.079 L 311.811,0 L 0,0 L 0,170.079 z"
         id="path5781" />
    </clipPath>
    <clipPath
       clipPathUnits="userSpaceOnUse"
       id="clipPath5789">
      <path
         d="M -8.50391,4.44043 L 8.50342,4.44043 L 8.50342,-4.44043 L -8.50391,-4.44043 L -8.50391,4.44043 z"
         id="path5791" />
    </clipPath>
    <clipPath
       clipPathUnits="userSpaceOnUse"
       id="clipPath5807">
      <path
         d="M -8.50391,4.44043 L 8.50342,4.44043 L 8.50342,-4.44043 L -8.50391,-4.44043 L -8.50391,4.44043 z"
         id="path5809" />
    </clipPath>
    <clipPath
       clipPathUnits="userSpaceOnUse"
       id="clipPath5825">
      <path
         d="M -8.50391,4.44043 L 8.50342,4.44043 L 8.50342,-4.44043 L -8.50391,-4.44043 L -8.50391,4.44043 z"
         id="path5827" />
    </clipPath>
    <inkscape:perspective
       id="perspective10"
       inkscape:persp3d-origin="372.04724 : 350.78739 : 1"
       inkscape:vp_z="744.09448 : 526.18109 : 1"
       inkscape:vp_y="0 : 1000 : 0"
       inkscape:vp_x="0 : 526.18109 : 1"
       sodipodi:type="inkscape:persp3d" />
  </defs>
  <metadata
     id="metadata8036">
    <rdf:RDF>
      <cc:Work
         rdf:about="">
        <dc:format>image/svg+xml</dc:format>
        <dc:type
           rdf:resource="http://purl.org/dc/dcmitype/StillImage" />
      </cc:Work>
    </rdf:RDF>
  </metadata>
  <g
     transform="translate(-41.598733,-44.93346)"
     id="layer1"
     inkscape:groupmode="layer"
     inkscape:label="Layer 1">
    <g
       inkscape:transform-center-y="-13.229653"
       inkscape:transform-center-x="7.5866"
       inkscape:label="Layer 1"
       id="use7113"
       transform="matrix(0,1,-1,0,183.83093,88.953269)">
      <path
         id="path7487"
         style="fill:none;fill-rule:evenodd;stroke:#000000;stroke-width:1px;stroke-linecap:butt;stroke-linejoin:miter;stroke-opacity:1"
         d="M 9.6298426,56.692902 L 16.716442,56.692902 C 16.716442,56.692902 23.803042,56.692902 27.346342,63.779502 C 23.803042,70.866102 16.716442,70.866102 16.716442,70.866102 L 9.6298426,70.866102 L 9.6298426,70.866102 C 16.642242,63.853702 9.6298426,56.692902 9.6298426,56.692902 M 11.738343,60.236202 L 2.5431425,60.236202 M 27.346342,63.779502 L 34.432942,63.779502 M 11.738343,67.322802 L 2.5431425,67.322802 M 6.0864426,70.866102 C 13.098842,63.853702 6.0864426,56.692902 6.0864426,56.692902"
         inkscape:label="XOR Gate" />
    </g>
    <use
       x="0"
       y="0"
       inkscape:tiled-clone-of="#use7113"
       xlink:href="#use7113"
       transform="translate(3.5433639,46.062887)"
       id="use7245"
       inkscape:transform-center-x="7.5866"
       inkscape:transform-center-y="-13.229653"
       width="1"
       height="1" />
    <use
       x="0"
       y="0"
       inkscape:tiled-clone-of="#use7113"
       xlink:href="#use7113"
       transform="translate(28.346564,-4.3372175e-5)"
       id="use7247"
       inkscape:transform-center-x="7.5866"
       inkscape:transform-center-y="-13.229653"
       width="1"
       height="1" />
    <use
       x="0"
       y="0"
       inkscape:tiled-clone-of="#use7113"
       xlink:href="#use7113"
       transform="translate(56.692964,-4.3372175e-5)"
       id="use7251"
       inkscape:transform-center-x="7.5866"
       inkscape:transform-center-y="-13.229653"
       width="1"
       height="1" />
    <use
       x="0"
       y="0"
       inkscape:tiled-clone-of="#use7113"
       xlink:href="#use7113"
       transform="translate(85.039464,-4.3372175e-5)"
       id="use7255"
       inkscape:transform-center-x="7.5866"
       inkscape:transform-center-y="-13.229653"
       width="1"
       height="1" />
    <use
       x="0"
       y="0"
       inkscape:tiled-clone-of="#use7113"
       xlink:href="#use7113"
       transform="translate(88.582564,46.062887)"
       id="use7257"
       inkscape:transform-center-x="7.5866"
       inkscape:transform-center-y="-13.229653"
       width="1"
       height="1" />
    <use
       x="0"
       y="0"
       inkscape:tiled-clone-of="#use7113"
       xlink:href="#use7113"
       transform="translate(141.73236,-4.3372175e-5)"
       id="use7263"
       inkscape:transform-center-x="7.5866"
       inkscape:transform-center-y="-13.229653"
       width="1"
       height="1" />
    <use
       x="0"
       y="0"
       inkscape:tiled-clone-of="#use7113"
       xlink:href="#use7113"
       transform="translate(145.27536,46.062887)"
       id="use7265"
       inkscape:transform-center-x="7.5866"
       inkscape:transform-center-y="-13.229653"
       width="1"
       height="1" />
    <path
       style="fill:none;fill-rule:evenodd;stroke:#000000;stroke-width:1;stroke-linecap:butt;stroke-linejoin:miter;stroke-miterlimit:4;stroke-dasharray:none;stroke-opacity:1"
       d="M 94.373332,130.47287 L 269.36987,130.49637"
       id="path7317"
       sodipodi:nodetypes="cc" />
    <path
       sodipodi:type="arc"
       style="fill:#000000;fill-rule:evenodd;stroke:#000000;stroke-width:1px;stroke-linecap:butt;stroke-linejoin:miter;stroke-opacity:1"
       id="path7319"
       sodipodi:cx="1975.3937"
       sodipodi:cy="1192.3228"
       sodipodi:rx="1.7716535"
       sodipodi:ry="1.7716535"
       d="M 1977.1653,1192.3228 A 1.7716535,1.7716535 0 1 1 1973.622,1192.3228 A 1.7716535,1.7716535 0 1 1 1977.1653,1192.3228 z"
       transform="translate(-1848.2557,-1061.8499)"
       inkscape:tile-cx="1973.622"
       inkscape:tile-cy="1194.0945"
       inkscape:tile-w="3.5433071"
       inkscape:tile-h="3.5433071"
       inkscape:tile-x0="1971.8504"
       inkscape:tile-y0="1192.3228" />
    <use
       x="0"
       y="0"
       inkscape:tiled-clone-of="#path7319"
       xlink:href="#path7319"
       transform="translate(85.039364,-3.3721749e-6)"
       id="use7363"
       width="744.09448"
       height="1052.3622" />
    <path
       style="fill:none;fill-rule:evenodd;stroke:#000000;stroke-width:1px;stroke-linecap:butt;stroke-linejoin:miter;stroke-opacity:1"
       d="M 120.05143,137.55947 L 120.05143,123.38617"
       id="path7423" />
    <path
       style="fill:none;fill-rule:evenodd;stroke:#000000;stroke-width:1px;stroke-linecap:butt;stroke-linejoin:miter;stroke-opacity:1"
       d="M 127.13813,137.55947 L 127.13813,130.47287"
       id="path7425" />
    <path
       id="use7427"
       d="M 148.3979,169.44929 L 148.39789,123.38622"
       style="fill:none;fill-rule:evenodd;stroke:#000000;stroke-width:1px;stroke-linecap:butt;stroke-linejoin:miter;stroke-opacity:1"
       sodipodi:nodetypes="cc" />
    <use
       x="0"
       y="0"
       xlink:href="#use7427"
       id="use7431"
       transform="translate(28.346464,-7.3372175e-5)"
       width="744.09448"
       height="1052.3622" />
    <path
       sodipodi:nodetypes="cc"
       style="fill:none;fill-rule:evenodd;stroke:#000000;stroke-width:1px;stroke-linecap:butt;stroke-linejoin:miter;stroke-opacity:1"
       d="M 205.09082,137.55952 L 205.09072,123.38613"
       id="use7435" />
    <use
       x="0"
       y="0"
       xlink:href="#use7435"
       id="use7439"
       transform="translate(56.692964,-3.3721749e-6)"
       width="744.09448"
       height="1052.3622" />
    <path
       sodipodi:nodetypes="cc"
       id="use7463"
       d="M 94.373332,84.409869 L 265.82246,84.433369"
       style="fill:none;fill-rule:evenodd;stroke:#000000;stroke-width:2;stroke-linecap:butt;stroke-linejoin:miter;stroke-miterlimit:4;stroke-dasharray:none;stroke-opacity:1" />
    <use
       x="0"
       y="0"
       xlink:href="#path7319"
       id="use7465"
       transform="translate(-3.5433411,-46.086533)"
       width="744.09448"
       height="1052.3622" />
    <use
       x="0"
       y="0"
       xlink:href="#use7363"
       id="use7471"
       transform="translate(-3.5433411,-46.086533)"
       width="744.09448"
       height="1052.3622" />
    <use
       x="0"
       y="0"
       xlink:href="#path7425"
       id="use7473"
       transform="translate(-3.5433411,-46.062973)"
       width="744.09448"
       height="1052.3622" />
    <g
       transform="translate(-1851.1043,-1039.8305)"
       id="g7541">
      <rect
         y="1120.697"
         x="2080.9983"
         height="7.0866036"
         width="14.173134"
         id="rect7508"
         style="fill:#ffffff;stroke:none;stroke-width:2;stroke-linecap:butt;stroke-linejoin:miter;stroke-miterlimit:4;stroke-dasharray:none" />
      <g
         id="g7535"
         transform="translate(-3.2010537,-9.6179318)">
        <text
           inkscape:tile-y0="1153.0941"
           inkscape:tile-x0="2131.805"
           inkscape:tile-h="2.0240001"
           inkscape:tile-w="2.0240001"
           inkscape:tile-cy="1154.1061"
           inkscape:tile-cx="2132.817"
           transform="scale(1.0971743,0.9114322)"
           id="text7523"
           y="1245.1505"
           x="1900.0793"
           style="font-size:17.90533257px;font-style:normal;font-weight:normal;fill:#000000;fill-opacity:1;stroke:none;stroke-width:1px;stroke-linecap:butt;stroke-linejoin:miter;stroke-opacity:1;font-family:Bitstream Vera Sans"
           xml:space="preserve"><tspan
             y="1245.1505"
             x="1900.0793"
             id="tspan7525"
             sodipodi:role="line">.</tspan></text>
        <use
           height="1052.3622"
           width="744.09448"
           transform="translate(3.3665851,-3.1988018e-5)"
           id="use7531"
           xlink:href="#text7523"
           inkscape:tiled-clone-of="#text7523"
           y="0"
           x="0" />
        <use
           height="1052.3622"
           width="744.09448"
           id="use7533"
           transform="translate(6.9098922,-3.1988018e-5)"
           xlink:href="#text7523"
           inkscape:tiled-clone-of="#text7523"
           y="0"
           x="0" />
      </g>
    </g>
    <g
       inkscape:label="Layer 1"
       id="g7597"
       transform="translate(39.555732,17.086969)">
      <path
         style="fill:none;fill-rule:evenodd;stroke:#000000;stroke-width:1px;stroke-linecap:butt;stroke-linejoin:miter;stroke-opacity:1"
         d="M 2.5430421,77.952824 L 2.5430421,56.692924 L 37.976142,56.692924 L 55.692742,67.322824 L 37.976142,77.952824 L 2.5430421,77.952824 z"
         id="Label"
         sodipodi:nodetypes="cccccc"
         inkscape:label="Label" />
    </g>
    <use
       height="1052.3622"
       width="744.09448"
       transform="translate(-4.1088189e-5,46.062907)"
       id="use7600"
       xlink:href="#g7597"
       y="0"
       x="0" />
    <use
       height="1052.3622"
       width="744.09448"
       transform="translate(-4.1088189e-5,-28.346433)"
       id="use7602"
       xlink:href="#g7597"
       y="0"
       x="0" />
    <use
       height="1052.3622"
       width="744.09448"
       transform="translate(248.03136,113.38585)"
       id="use7608"
       xlink:href="#use7602"
       y="0"
       x="0" />
    <use
       height="1052.3622"
       width="744.09448"
       transform="translate(-4.1088189e-5,28.346457)"
       id="use7610"
       xlink:href="#use7608"
       y="0"
       x="0" />
    <path
       id="path7612"
       d="M 290.13023,197.79567 L 112.47273,197.79567"
       style="fill:none;fill-rule:evenodd;stroke:#000000;stroke-width:2;stroke-linecap:butt;stroke-linejoin:miter;stroke-opacity:1"
       sodipodi:nodetypes="cc" />
    <path
       id="path7614"
       d="M 290.06773,169.44917 L 264.82703,169.44917"
       style="fill:none;fill-rule:evenodd;stroke:#000000;stroke-width:1px;stroke-linecap:butt;stroke-linejoin:miter;stroke-opacity:1"
       sodipodi:nodetypes="cc" />
    <path
       id="path7616"
       d="M 116.50813,91.496469 L 116.50813,56.063369"
       style="fill:none;fill-rule:evenodd;stroke:#000000;stroke-width:1px;stroke-linecap:butt;stroke-linejoin:miter;stroke-opacity:1"
       sodipodi:nodetypes="cc" />
    <path
       id="path7618"
       d="M 144.85463,91.496469 L 144.85463,56.063369"
       style="fill:none;fill-rule:evenodd;stroke:#000000;stroke-width:1px;stroke-linecap:butt;stroke-linejoin:miter;stroke-opacity:1"
       sodipodi:nodetypes="cc" />
    <path
       id="path7620"
       d="M 201.54753,91.496469 L 201.54753,56.063369"
       style="fill:none;fill-rule:evenodd;stroke:#000000;stroke-width:1px;stroke-linecap:butt;stroke-linejoin:miter;stroke-opacity:1"
       sodipodi:nodetypes="cc" />
    <path
       id="path7622"
       d="M 258.24043,91.496469 L 258.24043,56.063369"
       style="fill:none;fill-rule:evenodd;stroke:#000000;stroke-width:1px;stroke-linecap:butt;stroke-linejoin:miter;stroke-opacity:1"
       sodipodi:nodetypes="cc" />
    <path
       style="fill:none;fill-rule:evenodd;stroke:#000000;stroke-width:2;stroke-linecap:butt;stroke-linejoin:miter;stroke-miterlimit:4;stroke-dasharray:none;stroke-opacity:1"
       d="M 94.404632,56.063369 L 258.73973,56.063369"
       id="path7604"
       sodipodi:nodetypes="cc" />
    <use
       x="0"
       y="0"
       xlink:href="#use7465"
       id="use7624"
       transform="translate(-7.0865411,-28.322883)"
       width="744.09448"
       height="1052.3622" />
    <use
       x="0"
       y="0"
       xlink:href="#use7624"
       id="use7626"
       transform="translate(28.346464,-3.3721749e-6)"
       width="744.09448"
       height="1052.3622" />
    <use
       x="0"
       y="0"
       xlink:href="#use7626"
       id="use7628"
       transform="translate(28.346464,-3.3721749e-6)"
       width="744.09448"
       height="1052.3622" />
    <use
       x="0"
       y="0"
       xlink:href="#use7628"
       id="use7630"
       transform="translate(28.346464,-3.3721749e-6)"
       width="744.09448"
       height="1052.3622" />
    <path
       style="fill:none;fill-rule:evenodd;stroke:#000000;stroke-width:1px;stroke-linecap:butt;stroke-linejoin:miter;stroke-opacity:1"
       d="M 173.20113,91.496469 L 173.20113,56.063369"
       id="path7632"
       sodipodi:nodetypes="cc" />
    <path
       style="fill:none;fill-rule:evenodd;stroke:#000000;stroke-width:1px;stroke-linecap:butt;stroke-linejoin:miter;stroke-opacity:1"
       d="M 95.248332,169.44917 L 112.96483,169.44917 L 112.97653,197.79567"
       id="path7654"
       sodipodi:nodetypes="ccc" />
    <path
       style="fill:none;fill-rule:evenodd;stroke:#000000;stroke-width:1px;stroke-linecap:butt;stroke-linejoin:miter;stroke-opacity:1"
       d="M 123.09763,169.44917 L 141.31133,169.44917 L 141.31133,197.79567"
       id="path7656"
       sodipodi:nodetypes="ccc" />
    <path
       sodipodi:nodetypes="ccc"
       id="use7664"
       d="M 147.90003,169.44929 L 169.65775,169.44929 L 169.55623,197.79567"
       style="fill:none;fill-rule:evenodd;stroke:#000000;stroke-width:1px;stroke-linecap:butt;stroke-linejoin:miter;stroke-opacity:1" />
    <use
       x="0"
       y="0"
       xlink:href="#use7664"
       id="use7666"
       transform="translate(28.346464,4.6627825e-5)"
       width="744.09448"
       height="1052.3622" />
    <path
       style="fill:none;fill-rule:evenodd;stroke:#000000;stroke-width:1px;stroke-linecap:butt;stroke-linejoin:miter;stroke-opacity:1"
       d="M 208.13702,169.44921 L 226.35072,169.44921 L 226.35072,197.79571"
       id="use7668"
       sodipodi:nodetypes="ccc" />
    <use
       x="0"
       y="0"
       xlink:href="#g7541"
       id="use7670"
       transform="translate(-4.1088189e-5,46.062997)"
       width="744.09448"
       height="1052.3622" />
    <use
       x="0"
       y="0"
       xlink:href="#g7541"
       id="use7672"
       transform="translate(-1.4108819e-4,-28.346453)"
       width="744.09448"
       height="1052.3622" />
    <use
       x="0"
       y="0"
       xlink:href="#use7668"
       id="use7674"
       transform="translate(28.346464,-3.3721749e-6)"
       width="744.09448"
       height="1052.3622" />
    <use
       x="0"
       y="0"
       xlink:href="#use7670"
       id="use7676"
       transform="translate(3.5432639,38.976367)"
       width="744.09448"
       height="1052.3622" />
    <use
       x="0"
       y="0"
       xlink:href="#use7676"
       id="use7678"
       transform="translate(-4.1088189e-5,28.346457)"
       width="744.09448"
       height="1052.3622" />
    <g
       transform="matrix(1.89,0,0,1.89,-369.36697,-193.73459)"
       ns0:text="T$_i$"
       ns0:preamble=""
       id="g3457">
      <defs
         id="defs3459">
        <g
           id="g3461">
          <symbol
             style="overflow:visible"
             overflow="visible"
             id="textext-14d0dad7-0">
            <path
               style="stroke:none"
               d=""
               id="path3464" />
          </symbol>
          <symbol
             style="overflow:visible"
             overflow="visible"
             id="textext-14d0dad7-1">
            <path
               style="stroke:none"
               d="M 2.265625,-4.359375 C 2.265625,-4.46875 2.171875,-4.625 1.984375,-4.625 C 1.796875,-4.625 1.59375,-4.4375 1.59375,-4.234375 C 1.59375,-4.125 1.671875,-3.96875 1.875,-3.96875 C 2.0625,-3.96875 2.265625,-4.171875 2.265625,-4.359375 z M 0.84375,-0.8125 C 0.8125,-0.71875 0.78125,-0.640625 0.78125,-0.515625 C 0.78125,-0.1875 1.046875,0.0625 1.4375,0.0625 C 2.125,0.0625 2.4375,-0.890625 2.4375,-1 C 2.4375,-1.09375 2.34375,-1.09375 2.328125,-1.09375 C 2.234375,-1.09375 2.21875,-1.046875 2.1875,-0.96875 C 2.03125,-0.40625 1.734375,-0.125 1.453125,-0.125 C 1.3125,-0.125 1.28125,-0.21875 1.28125,-0.375 C 1.28125,-0.53125 1.328125,-0.65625 1.390625,-0.8125 C 1.46875,-1 1.546875,-1.1875 1.609375,-1.375 C 1.671875,-1.546875 1.9375,-2.171875 1.953125,-2.265625 C 1.984375,-2.328125 2,-2.40625 2,-2.484375 C 2,-2.8125 1.71875,-3.078125 1.34375,-3.078125 C 0.640625,-3.078125 0.328125,-2.125 0.328125,-2 C 0.328125,-1.921875 0.421875,-1.921875 0.453125,-1.921875 C 0.546875,-1.921875 0.546875,-1.953125 0.578125,-2.03125 C 0.75,-2.625 1.0625,-2.875 1.3125,-2.875 C 1.421875,-2.875 1.484375,-2.828125 1.484375,-2.640625 C 1.484375,-2.46875 1.453125,-2.375 1.28125,-1.9375 L 0.84375,-0.8125 z"
               id="path3467" />
          </symbol>
          <symbol
             style="overflow:visible"
             overflow="visible"
             id="textext-14d0dad7-2">
            <path
               style="stroke:none"
               d=""
               id="path3470" />
          </symbol>
          <symbol
             style="overflow:visible"
             overflow="visible"
             id="textext-14d0dad7-3">
            <path
               style="stroke:none"
               d="M 6.640625,-6.75 L 0.546875,-6.75 L 0.359375,-4.5 L 0.609375,-4.5 C 0.75,-6.109375 0.890625,-6.4375 2.40625,-6.4375 C 2.578125,-6.4375 2.84375,-6.4375 2.9375,-6.421875 C 3.15625,-6.375 3.15625,-6.265625 3.15625,-6.046875 L 3.15625,-0.78125 C 3.15625,-0.453125 3.15625,-0.3125 2.109375,-0.3125 L 1.703125,-0.3125 L 1.703125,0 C 2.109375,-0.03125 3.125,-0.03125 3.59375,-0.03125 C 4.046875,-0.03125 5.078125,-0.03125 5.484375,0 L 5.484375,-0.3125 L 5.078125,-0.3125 C 4.03125,-0.3125 4.03125,-0.453125 4.03125,-0.78125 L 4.03125,-6.046875 C 4.03125,-6.234375 4.03125,-6.375 4.21875,-6.421875 C 4.328125,-6.4375 4.59375,-6.4375 4.78125,-6.4375 C 6.296875,-6.4375 6.4375,-6.109375 6.578125,-4.5 L 6.828125,-4.5 L 6.640625,-6.75 z"
               id="path3473" />
          </symbol>
        </g>
      </defs>
      <g
         id="textext-14d0dad7-4">
        <g
           style="fill:#000000;fill-opacity:1"
           id="g3476">
          <use
             height="163.9922"
             width="408.03888"
             xlink:href="#textext-14d0dad7-3"
             x="223.43201"
             y="134.765"
             id="use3478" />
        </g>
        <g
           style="fill:#000000;fill-opacity:1"
           id="g3480">
          <use
             height="163.9922"
             width="408.03888"
             xlink:href="#textext-14d0dad7-1"
             x="230.627"
             y="136.259"
             id="use3482" />
        </g>
      </g>
    </g>
    <g
       id="g3834"
       ns0:preamble=""
       ns0:text="A$_i$B"
       transform="matrix(1.89,0,0,1.89,-375.27837,-165.01901)">
      <defs
         id="defs3836">
        <g
           id="g3838">
          <symbol
             style="overflow:visible"
             id="textext-14319537-0"
             overflow="visible">
            <path
               id="path3841"
               d=""
               style="stroke:none" />
          </symbol>
          <symbol
             style="overflow:visible"
             id="textext-14319537-1"
             overflow="visible">
            <path
               id="path3844"
               d="M 3.96875,-6.9375 C 3.921875,-7.0625 3.890625,-7.140625 3.734375,-7.140625 C 3.578125,-7.140625 3.546875,-7.078125 3.5,-6.9375 L 1.4375,-0.984375 C 1.25,-0.46875 0.859375,-0.3125 0.3125,-0.3125 L 0.3125,0 C 0.546875,-0.015625 0.984375,-0.03125 1.328125,-0.03125 C 1.640625,-0.03125 2.15625,-0.015625 2.484375,0 L 2.484375,-0.3125 C 1.984375,-0.3125 1.734375,-0.5625 1.734375,-0.8125 C 1.734375,-0.84375 1.75,-0.953125 1.75,-0.96875 L 2.21875,-2.265625 L 4.671875,-2.265625 L 5.203125,-0.75 C 5.21875,-0.703125 5.234375,-0.640625 5.234375,-0.609375 C 5.234375,-0.3125 4.671875,-0.3125 4.40625,-0.3125 L 4.40625,0 C 4.765625,-0.03125 5.46875,-0.03125 5.84375,-0.03125 C 6.265625,-0.03125 6.734375,-0.015625 7.140625,0 L 7.140625,-0.3125 L 6.96875,-0.3125 C 6.375,-0.3125 6.234375,-0.375 6.125,-0.703125 L 3.96875,-6.9375 z M 3.4375,-5.828125 L 4.5625,-2.578125 L 2.328125,-2.578125 L 3.4375,-5.828125 z"
               style="stroke:none" />
          </symbol>
          <symbol
             style="overflow:visible"
             id="textext-14319537-2"
             overflow="visible">
            <path
               id="path3847"
               d="M 2.21875,-3.65625 L 2.21875,-6.09375 C 2.21875,-6.4375 2.234375,-6.5 2.703125,-6.5 L 3.9375,-6.5 C 4.90625,-6.5 5.25,-5.65625 5.25,-5.125 C 5.25,-4.484375 4.765625,-3.65625 3.65625,-3.65625 L 2.21875,-3.65625 z M 4.5625,-3.5625 C 5.53125,-3.75 6.21875,-4.390625 6.21875,-5.125 C 6.21875,-5.984375 5.296875,-6.8125 4,-6.8125 L 0.359375,-6.8125 L 0.359375,-6.5 L 0.59375,-6.5 C 1.359375,-6.5 1.390625,-6.390625 1.390625,-6.03125 L 1.390625,-0.78125 C 1.390625,-0.421875 1.359375,-0.3125 0.59375,-0.3125 L 0.359375,-0.3125 L 0.359375,0 L 4.265625,0 C 5.59375,0 6.484375,-0.890625 6.484375,-1.828125 C 6.484375,-2.6875 5.671875,-3.4375 4.5625,-3.5625 z M 3.953125,-0.3125 L 2.703125,-0.3125 C 2.234375,-0.3125 2.21875,-0.375 2.21875,-0.703125 L 2.21875,-3.421875 L 4.09375,-3.421875 C 5.078125,-3.421875 5.5,-2.5 5.5,-1.828125 C 5.5,-1.125 4.96875,-0.3125 3.953125,-0.3125 z"
               style="stroke:none" />
          </symbol>
          <symbol
             style="overflow:visible"
             id="textext-14319537-3"
             overflow="visible">
            <path
               id="path3850"
               d=""
               style="stroke:none" />
          </symbol>
          <symbol
             style="overflow:visible"
             id="textext-14319537-4"
             overflow="visible">
            <path
               id="path3853"
               d="M 2.265625,-4.359375 C 2.265625,-4.46875 2.171875,-4.625 1.984375,-4.625 C 1.796875,-4.625 1.59375,-4.4375 1.59375,-4.234375 C 1.59375,-4.125 1.671875,-3.96875 1.875,-3.96875 C 2.0625,-3.96875 2.265625,-4.171875 2.265625,-4.359375 z M 0.84375,-0.8125 C 0.8125,-0.71875 0.78125,-0.640625 0.78125,-0.515625 C 0.78125,-0.1875 1.046875,0.0625 1.4375,0.0625 C 2.125,0.0625 2.4375,-0.890625 2.4375,-1 C 2.4375,-1.09375 2.34375,-1.09375 2.328125,-1.09375 C 2.234375,-1.09375 2.21875,-1.046875 2.1875,-0.96875 C 2.03125,-0.40625 1.734375,-0.125 1.453125,-0.125 C 1.3125,-0.125 1.28125,-0.21875 1.28125,-0.375 C 1.28125,-0.53125 1.328125,-0.65625 1.390625,-0.8125 C 1.46875,-1 1.546875,-1.1875 1.609375,-1.375 C 1.671875,-1.546875 1.9375,-2.171875 1.953125,-2.265625 C 1.984375,-2.328125 2,-2.40625 2,-2.484375 C 2,-2.8125 1.71875,-3.078125 1.34375,-3.078125 C 0.640625,-3.078125 0.328125,-2.125 0.328125,-2 C 0.328125,-1.921875 0.421875,-1.921875 0.453125,-1.921875 C 0.546875,-1.921875 0.546875,-1.953125 0.578125,-2.03125 C 0.75,-2.625 1.0625,-2.875 1.3125,-2.875 C 1.421875,-2.875 1.484375,-2.828125 1.484375,-2.640625 C 1.484375,-2.46875 1.453125,-2.375 1.28125,-1.9375 L 0.84375,-0.8125 z"
               style="stroke:none" />
          </symbol>
        </g>
      </defs>
      <g
         id="textext-14319537-5">
        <g
           id="g3856"
           style="fill:#000000;fill-opacity:1">
          <use
             height="163.9922"
             width="408.03888"
             id="use3858"
             y="134.765"
             x="223.43201"
             xlink:href="#textext-14319537-1" />
        </g>
        <g
           id="g3860"
           style="fill:#000000;fill-opacity:1">
          <use
             height="163.9922"
             width="408.03888"
             id="use3862"
             y="136.259"
             x="230.90401"
             xlink:href="#textext-14319537-4" />
        </g>
        <g
           id="g3864"
           style="fill:#000000;fill-opacity:1">
          <use
             height="163.9922"
             width="408.03888"
             id="use3866"
             y="134.765"
             x="234.22099"
             xlink:href="#textext-14319537-2" />
        </g>
      </g>
    </g>
    <g
       transform="matrix(1.89,0,0,1.89,-131.33557,-52.725831)"
       ns0:text="T$_{i+1}$"
       ns0:preamble=""
       id="g4258">
      <defs
         id="defs4260">
        <g
           id="g4262">
          <symbol
             style="overflow:visible"
             overflow="visible"
             id="textext-4b46c54d-0">
            <path
               style="stroke:none"
               d=""
               id="path4265" />
          </symbol>
          <symbol
             style="overflow:visible"
             overflow="visible"
             id="textext-4b46c54d-1">
            <path
               style="stroke:none"
               d="M 6.640625,-6.75 L 0.546875,-6.75 L 0.359375,-4.5 L 0.609375,-4.5 C 0.75,-6.109375 0.890625,-6.4375 2.40625,-6.4375 C 2.578125,-6.4375 2.84375,-6.4375 2.9375,-6.421875 C 3.15625,-6.375 3.15625,-6.265625 3.15625,-6.046875 L 3.15625,-0.78125 C 3.15625,-0.453125 3.15625,-0.3125 2.109375,-0.3125 L 1.703125,-0.3125 L 1.703125,0 C 2.109375,-0.03125 3.125,-0.03125 3.59375,-0.03125 C 4.046875,-0.03125 5.078125,-0.03125 5.484375,0 L 5.484375,-0.3125 L 5.078125,-0.3125 C 4.03125,-0.3125 4.03125,-0.453125 4.03125,-0.78125 L 4.03125,-6.046875 C 4.03125,-6.234375 4.03125,-6.375 4.21875,-6.421875 C 4.328125,-6.4375 4.59375,-6.4375 4.78125,-6.4375 C 6.296875,-6.4375 6.4375,-6.109375 6.578125,-4.5 L 6.828125,-4.5 L 6.640625,-6.75 z"
               id="path4268" />
          </symbol>
          <symbol
             style="overflow:visible"
             overflow="visible"
             id="textext-4b46c54d-2">
            <path
               style="stroke:none"
               d=""
               id="path4271" />
          </symbol>
          <symbol
             style="overflow:visible"
             overflow="visible"
             id="textext-4b46c54d-3">
            <path
               style="stroke:none"
               d="M 3.21875,-1.578125 L 5.359375,-1.578125 C 5.453125,-1.578125 5.609375,-1.578125 5.609375,-1.734375 C 5.609375,-1.921875 5.453125,-1.921875 5.359375,-1.921875 L 3.21875,-1.921875 L 3.21875,-4.0625 C 3.21875,-4.140625 3.21875,-4.3125 3.0625,-4.3125 C 2.890625,-4.3125 2.890625,-4.15625 2.890625,-4.0625 L 2.890625,-1.921875 L 0.75,-1.921875 C 0.65625,-1.921875 0.484375,-1.921875 0.484375,-1.75 C 0.484375,-1.578125 0.640625,-1.578125 0.75,-1.578125 L 2.890625,-1.578125 L 2.890625,0.5625 C 2.890625,0.65625 2.890625,0.828125 3.046875,0.828125 C 3.21875,0.828125 3.21875,0.65625 3.21875,0.5625 L 3.21875,-1.578125 z"
               id="path4274" />
          </symbol>
          <symbol
             style="overflow:visible"
             overflow="visible"
             id="textext-4b46c54d-4">
            <path
               style="stroke:none"
               d="M 2.328125,-4.4375 C 2.328125,-4.625 2.328125,-4.625 2.125,-4.625 C 1.671875,-4.1875 1.046875,-4.1875 0.765625,-4.1875 L 0.765625,-3.9375 C 0.921875,-3.9375 1.390625,-3.9375 1.765625,-4.125 L 1.765625,-0.578125 C 1.765625,-0.34375 1.765625,-0.25 1.078125,-0.25 L 0.8125,-0.25 L 0.8125,0 C 0.9375,0 1.796875,-0.03125 2.046875,-0.03125 C 2.265625,-0.03125 3.140625,0 3.296875,0 L 3.296875,-0.25 L 3.03125,-0.25 C 2.328125,-0.25 2.328125,-0.34375 2.328125,-0.578125 L 2.328125,-4.4375 z"
               id="path4277" />
          </symbol>
          <symbol
             style="overflow:visible"
             overflow="visible"
             id="textext-4b46c54d-5">
            <path
               style="stroke:none"
               d=""
               id="path4280" />
          </symbol>
          <symbol
             style="overflow:visible"
             overflow="visible"
             id="textext-4b46c54d-6">
            <path
               style="stroke:none"
               d="M 2.265625,-4.359375 C 2.265625,-4.46875 2.171875,-4.625 1.984375,-4.625 C 1.796875,-4.625 1.59375,-4.4375 1.59375,-4.234375 C 1.59375,-4.125 1.671875,-3.96875 1.875,-3.96875 C 2.0625,-3.96875 2.265625,-4.171875 2.265625,-4.359375 z M 0.84375,-0.8125 C 0.8125,-0.71875 0.78125,-0.640625 0.78125,-0.515625 C 0.78125,-0.1875 1.046875,0.0625 1.4375,0.0625 C 2.125,0.0625 2.4375,-0.890625 2.4375,-1 C 2.4375,-1.09375 2.34375,-1.09375 2.328125,-1.09375 C 2.234375,-1.09375 2.21875,-1.046875 2.1875,-0.96875 C 2.03125,-0.40625 1.734375,-0.125 1.453125,-0.125 C 1.3125,-0.125 1.28125,-0.21875 1.28125,-0.375 C 1.28125,-0.53125 1.328125,-0.65625 1.390625,-0.8125 C 1.46875,-1 1.546875,-1.1875 1.609375,-1.375 C 1.671875,-1.546875 1.9375,-2.171875 1.953125,-2.265625 C 1.984375,-2.328125 2,-2.40625 2,-2.484375 C 2,-2.8125 1.71875,-3.078125 1.34375,-3.078125 C 0.640625,-3.078125 0.328125,-2.125 0.328125,-2 C 0.328125,-1.921875 0.421875,-1.921875 0.453125,-1.921875 C 0.546875,-1.921875 0.546875,-1.953125 0.578125,-2.03125 C 0.75,-2.625 1.0625,-2.875 1.3125,-2.875 C 1.421875,-2.875 1.484375,-2.828125 1.484375,-2.640625 C 1.484375,-2.46875 1.453125,-2.375 1.28125,-1.9375 L 0.84375,-0.8125 z"
               id="path4283" />
          </symbol>
        </g>
      </defs>
      <g
         id="textext-4b46c54d-7">
        <g
           style="fill:#000000;fill-opacity:1"
           id="g4286">
          <use
             height="163.9922"
             width="408.03888"
             xlink:href="#textext-4b46c54d-1"
             x="223.43201"
             y="134.765"
             id="use4288" />
        </g>
        <g
           style="fill:#000000;fill-opacity:1"
           id="g4290">
          <use
             height="163.9922"
             width="408.03888"
             xlink:href="#textext-4b46c54d-6"
             x="230.627"
             y="136.259"
             id="use4292" />
        </g>
        <g
           style="fill:#000000;fill-opacity:1"
           id="g4294">
          <use
             height="163.9922"
             width="408.03888"
             xlink:href="#textext-4b46c54d-3"
             x="233.446"
             y="136.259"
             id="use4296" />
          <use
             height="163.9922"
             width="408.03888"
             xlink:href="#textext-4b46c54d-4"
             x="239.56203"
             y="136.259"
             id="use4298" />
        </g>
      </g>
    </g>
    <g
       id="g7173"
       transform="matrix(1.89,0,0,1.89,-131.24697,-83.287091)"
       ns0:preamble=""
       ns0:text="m$_{i+1}$">
      <defs
         id="defs7175">
        <g
           id="g7177">
          <symbol
             id="textext-94a2a83e-0"
             overflow="visible"
             style="overflow:visible">
            <path
               id="path7180"
               d=""
               style="stroke:none" />
          </symbol>
          <symbol
             id="textext-94a2a83e-1"
             overflow="visible"
             style="overflow:visible">
            <path
               id="path7183"
               d="M 2.265625,-4.359375 C 2.265625,-4.46875 2.171875,-4.625 1.984375,-4.625 C 1.796875,-4.625 1.59375,-4.4375 1.59375,-4.234375 C 1.59375,-4.125 1.671875,-3.96875 1.875,-3.96875 C 2.0625,-3.96875 2.265625,-4.171875 2.265625,-4.359375 z M 0.84375,-0.8125 C 0.8125,-0.71875 0.78125,-0.640625 0.78125,-0.515625 C 0.78125,-0.1875 1.046875,0.0625 1.4375,0.0625 C 2.125,0.0625 2.4375,-0.890625 2.4375,-1 C 2.4375,-1.09375 2.34375,-1.09375 2.328125,-1.09375 C 2.234375,-1.09375 2.21875,-1.046875 2.1875,-0.96875 C 2.03125,-0.40625 1.734375,-0.125 1.453125,-0.125 C 1.3125,-0.125 1.28125,-0.21875 1.28125,-0.375 C 1.28125,-0.53125 1.328125,-0.65625 1.390625,-0.8125 C 1.46875,-1 1.546875,-1.1875 1.609375,-1.375 C 1.671875,-1.546875 1.9375,-2.171875 1.953125,-2.265625 C 1.984375,-2.328125 2,-2.40625 2,-2.484375 C 2,-2.8125 1.71875,-3.078125 1.34375,-3.078125 C 0.640625,-3.078125 0.328125,-2.125 0.328125,-2 C 0.328125,-1.921875 0.421875,-1.921875 0.453125,-1.921875 C 0.546875,-1.921875 0.546875,-1.953125 0.578125,-2.03125 C 0.75,-2.625 1.0625,-2.875 1.3125,-2.875 C 1.421875,-2.875 1.484375,-2.828125 1.484375,-2.640625 C 1.484375,-2.46875 1.453125,-2.375 1.28125,-1.9375 L 0.84375,-0.8125 z"
               style="stroke:none" />
          </symbol>
          <symbol
             id="textext-94a2a83e-2"
             overflow="visible"
             style="overflow:visible">
            <path
               id="path7186"
               d=""
               style="stroke:none" />
          </symbol>
          <symbol
             id="textext-94a2a83e-3"
             overflow="visible"
             style="overflow:visible">
            <path
               id="path7189"
               d="M 3.21875,-1.578125 L 5.359375,-1.578125 C 5.453125,-1.578125 5.609375,-1.578125 5.609375,-1.734375 C 5.609375,-1.921875 5.453125,-1.921875 5.359375,-1.921875 L 3.21875,-1.921875 L 3.21875,-4.0625 C 3.21875,-4.140625 3.21875,-4.3125 3.0625,-4.3125 C 2.890625,-4.3125 2.890625,-4.15625 2.890625,-4.0625 L 2.890625,-1.921875 L 0.75,-1.921875 C 0.65625,-1.921875 0.484375,-1.921875 0.484375,-1.75 C 0.484375,-1.578125 0.640625,-1.578125 0.75,-1.578125 L 2.890625,-1.578125 L 2.890625,0.5625 C 2.890625,0.65625 2.890625,0.828125 3.046875,0.828125 C 3.21875,0.828125 3.21875,0.65625 3.21875,0.5625 L 3.21875,-1.578125 z"
               style="stroke:none" />
          </symbol>
          <symbol
             id="textext-94a2a83e-4"
             overflow="visible"
             style="overflow:visible">
            <path
               id="path7192"
               d="M 2.328125,-4.4375 C 2.328125,-4.625 2.328125,-4.625 2.125,-4.625 C 1.671875,-4.1875 1.046875,-4.1875 0.765625,-4.1875 L 0.765625,-3.9375 C 0.921875,-3.9375 1.390625,-3.9375 1.765625,-4.125 L 1.765625,-0.578125 C 1.765625,-0.34375 1.765625,-0.25 1.078125,-0.25 L 0.8125,-0.25 L 0.8125,0 C 0.9375,0 1.796875,-0.03125 2.046875,-0.03125 C 2.265625,-0.03125 3.140625,0 3.296875,0 L 3.296875,-0.25 L 3.03125,-0.25 C 2.328125,-0.25 2.328125,-0.34375 2.328125,-0.578125 L 2.328125,-4.4375 z"
               style="stroke:none" />
          </symbol>
          <symbol
             id="textext-94a2a83e-5"
             overflow="visible"
             style="overflow:visible">
            <path
               id="path7195"
               d=""
               style="stroke:none" />
          </symbol>
          <symbol
             id="textext-94a2a83e-6"
             overflow="visible"
             style="overflow:visible">
            <path
               id="path7198"
               d="M 1.09375,-3.421875 L 1.09375,-0.75 C 1.09375,-0.3125 0.984375,-0.3125 0.3125,-0.3125 L 0.3125,0 C 0.671875,-0.015625 1.171875,-0.03125 1.453125,-0.03125 C 1.703125,-0.03125 2.21875,-0.015625 2.5625,0 L 2.5625,-0.3125 C 1.890625,-0.3125 1.78125,-0.3125 1.78125,-0.75 L 1.78125,-2.59375 C 1.78125,-3.625 2.5,-4.1875 3.125,-4.1875 C 3.765625,-4.1875 3.875,-3.65625 3.875,-3.078125 L 3.875,-0.75 C 3.875,-0.3125 3.765625,-0.3125 3.09375,-0.3125 L 3.09375,0 C 3.4375,-0.015625 3.953125,-0.03125 4.21875,-0.03125 C 4.46875,-0.03125 5,-0.015625 5.328125,0 L 5.328125,-0.3125 C 4.671875,-0.3125 4.5625,-0.3125 4.5625,-0.75 L 4.5625,-2.59375 C 4.5625,-3.625 5.265625,-4.1875 5.90625,-4.1875 C 6.53125,-4.1875 6.640625,-3.65625 6.640625,-3.078125 L 6.640625,-0.75 C 6.640625,-0.3125 6.53125,-0.3125 5.859375,-0.3125 L 5.859375,0 C 6.203125,-0.015625 6.71875,-0.03125 6.984375,-0.03125 C 7.25,-0.03125 7.765625,-0.015625 8.109375,0 L 8.109375,-0.3125 C 7.59375,-0.3125 7.34375,-0.3125 7.328125,-0.609375 L 7.328125,-2.515625 C 7.328125,-3.375 7.328125,-3.671875 7.015625,-4.03125 C 6.875,-4.203125 6.546875,-4.40625 5.96875,-4.40625 C 5.140625,-4.40625 4.6875,-3.8125 4.53125,-3.421875 C 4.390625,-4.296875 3.65625,-4.40625 3.203125,-4.40625 C 2.46875,-4.40625 2,-3.984375 1.71875,-3.359375 L 1.71875,-4.40625 L 0.3125,-4.296875 L 0.3125,-3.984375 C 1.015625,-3.984375 1.09375,-3.921875 1.09375,-3.421875 z"
               style="stroke:none" />
          </symbol>
        </g>
      </defs>
      <g
         id="textext-94a2a83e-7">
        <g
           id="g7201"
           style="fill:#000000;fill-opacity:1">
          <use
             id="use7203"
             y="134.765"
             x="223.43201"
             xlink:href="#textext-94a2a83e-6"
             width="408.03888"
             height="163.9922" />
        </g>
        <g
           id="g7205"
           style="fill:#000000;fill-opacity:1">
          <use
             id="use7207"
             y="136.259"
             x="231.73399"
             xlink:href="#textext-94a2a83e-1"
             width="408.03888"
             height="163.9922" />
        </g>
        <g
           id="g7209"
           style="fill:#000000;fill-opacity:1">
          <use
             id="use7211"
             y="136.259"
             x="234.55299"
             xlink:href="#textext-94a2a83e-3"
             width="408.03888"
             height="163.9922" />
          <use
             id="use7213"
             y="136.259"
             x="240.66902"
             xlink:href="#textext-94a2a83e-4"
             width="408.03888"
             height="163.9922" />
        </g>
      </g>
    </g>
    <g
       transform="matrix(1.91,0,0,1.91,-343.58989,-92.255441)"
       ns0:text="$0$"
       ns0:preamble=""
       id="g7755">
      <defs
         id="defs7757">
        <g
           id="g7759">
          <symbol
             style="overflow:visible"
             overflow="visible"
             id="textext-ef0d5c18-0">
            <path
               style="stroke:none"
               d=""
               id="path7762" />
          </symbol>
          <symbol
             style="overflow:visible"
             overflow="visible"
             id="textext-ef0d5c18-1">
            <path
               style="stroke:none"
               d="M 4.578125,-3.1875 C 4.578125,-3.984375 4.53125,-4.78125 4.1875,-5.515625 C 3.734375,-6.484375 2.90625,-6.640625 2.5,-6.640625 C 1.890625,-6.640625 1.171875,-6.375 0.75,-5.453125 C 0.4375,-4.765625 0.390625,-3.984375 0.390625,-3.1875 C 0.390625,-2.4375 0.421875,-1.546875 0.84375,-0.78125 C 1.265625,0.015625 2,0.21875 2.484375,0.21875 C 3.015625,0.21875 3.78125,0.015625 4.21875,-0.9375 C 4.53125,-1.625 4.578125,-2.40625 4.578125,-3.1875 z M 2.484375,0 C 2.09375,0 1.5,-0.25 1.328125,-1.203125 C 1.21875,-1.796875 1.21875,-2.71875 1.21875,-3.3125 C 1.21875,-3.953125 1.21875,-4.609375 1.296875,-5.140625 C 1.484375,-6.328125 2.234375,-6.421875 2.484375,-6.421875 C 2.8125,-6.421875 3.46875,-6.234375 3.65625,-5.25 C 3.765625,-4.6875 3.765625,-3.9375 3.765625,-3.3125 C 3.765625,-2.5625 3.765625,-1.890625 3.65625,-1.25 C 3.5,-0.296875 2.9375,0 2.484375,0 z"
               id="path7765" />
          </symbol>
        </g>
      </defs>
      <g
         id="textext-ef0d5c18-2">
        <g
           style="fill:#000000;fill-opacity:1"
           id="g7768">
          <use
             height="163.9922"
             width="408.03888"
             xlink:href="#textext-ef0d5c18-1"
             x="223.43201"
             y="134.765"
             id="use7770" />
        </g>
      </g>
    </g>
    <rect
       y="73.779953"
       x="102.33498"
       height="102.75587"
       width="180.70865"
       id="rect7549"
       style="fill:none;stroke:#666666;stroke-width:2;stroke-linecap:butt;stroke-linejoin:miter;stroke-miterlimit:4;stroke-dasharray:none" />
    <g
       id="g9710"
       transform="matrix(1.89,0,0,1.89,-371.27837,-121.54009)"
       ns0:preamble=""
       ns0:text="m$_i$">
      <defs
         id="defs9712">
        <g
           id="g9714">
          <symbol
             id="textext-f541f712-0"
             overflow="visible"
             style="overflow:visible">
            <path
               id="path9717"
               d=""
               style="stroke:none" />
          </symbol>
          <symbol
             id="textext-f541f712-1"
             overflow="visible"
             style="overflow:visible">
            <path
               id="path9720"
               d="M 1.09375,-3.421875 L 1.09375,-0.75 C 1.09375,-0.3125 0.984375,-0.3125 0.3125,-0.3125 L 0.3125,0 C 0.671875,-0.015625 1.171875,-0.03125 1.453125,-0.03125 C 1.703125,-0.03125 2.21875,-0.015625 2.5625,0 L 2.5625,-0.3125 C 1.890625,-0.3125 1.78125,-0.3125 1.78125,-0.75 L 1.78125,-2.59375 C 1.78125,-3.625 2.5,-4.1875 3.125,-4.1875 C 3.765625,-4.1875 3.875,-3.65625 3.875,-3.078125 L 3.875,-0.75 C 3.875,-0.3125 3.765625,-0.3125 3.09375,-0.3125 L 3.09375,0 C 3.4375,-0.015625 3.953125,-0.03125 4.21875,-0.03125 C 4.46875,-0.03125 5,-0.015625 5.328125,0 L 5.328125,-0.3125 C 4.671875,-0.3125 4.5625,-0.3125 4.5625,-0.75 L 4.5625,-2.59375 C 4.5625,-3.625 5.265625,-4.1875 5.90625,-4.1875 C 6.53125,-4.1875 6.640625,-3.65625 6.640625,-3.078125 L 6.640625,-0.75 C 6.640625,-0.3125 6.53125,-0.3125 5.859375,-0.3125 L 5.859375,0 C 6.203125,-0.015625 6.71875,-0.03125 6.984375,-0.03125 C 7.25,-0.03125 7.765625,-0.015625 8.109375,0 L 8.109375,-0.3125 C 7.59375,-0.3125 7.34375,-0.3125 7.328125,-0.609375 L 7.328125,-2.515625 C 7.328125,-3.375 7.328125,-3.671875 7.015625,-4.03125 C 6.875,-4.203125 6.546875,-4.40625 5.96875,-4.40625 C 5.140625,-4.40625 4.6875,-3.8125 4.53125,-3.421875 C 4.390625,-4.296875 3.65625,-4.40625 3.203125,-4.40625 C 2.46875,-4.40625 2,-3.984375 1.71875,-3.359375 L 1.71875,-4.40625 L 0.3125,-4.296875 L 0.3125,-3.984375 C 1.015625,-3.984375 1.09375,-3.921875 1.09375,-3.421875 z"
               style="stroke:none" />
          </symbol>
          <symbol
             id="textext-f541f712-2"
             overflow="visible"
             style="overflow:visible">
            <path
               id="path9723"
               d=""
               style="stroke:none" />
          </symbol>
          <symbol
             id="textext-f541f712-3"
             overflow="visible"
             style="overflow:visible">
            <path
               id="path9726"
               d="M 2.265625,-4.359375 C 2.265625,-4.46875 2.171875,-4.625 1.984375,-4.625 C 1.796875,-4.625 1.59375,-4.4375 1.59375,-4.234375 C 1.59375,-4.125 1.671875,-3.96875 1.875,-3.96875 C 2.0625,-3.96875 2.265625,-4.171875 2.265625,-4.359375 z M 0.84375,-0.8125 C 0.8125,-0.71875 0.78125,-0.640625 0.78125,-0.515625 C 0.78125,-0.1875 1.046875,0.0625 1.4375,0.0625 C 2.125,0.0625 2.4375,-0.890625 2.4375,-1 C 2.4375,-1.09375 2.34375,-1.09375 2.328125,-1.09375 C 2.234375,-1.09375 2.21875,-1.046875 2.1875,-0.96875 C 2.03125,-0.40625 1.734375,-0.125 1.453125,-0.125 C 1.3125,-0.125 1.28125,-0.21875 1.28125,-0.375 C 1.28125,-0.53125 1.328125,-0.65625 1.390625,-0.8125 C 1.46875,-1 1.546875,-1.1875 1.609375,-1.375 C 1.671875,-1.546875 1.9375,-2.171875 1.953125,-2.265625 C 1.984375,-2.328125 2,-2.40625 2,-2.484375 C 2,-2.8125 1.71875,-3.078125 1.34375,-3.078125 C 0.640625,-3.078125 0.328125,-2.125 0.328125,-2 C 0.328125,-1.921875 0.421875,-1.921875 0.453125,-1.921875 C 0.546875,-1.921875 0.546875,-1.953125 0.578125,-2.03125 C 0.75,-2.625 1.0625,-2.875 1.3125,-2.875 C 1.421875,-2.875 1.484375,-2.828125 1.484375,-2.640625 C 1.484375,-2.46875 1.453125,-2.375 1.28125,-1.9375 L 0.84375,-0.8125 z"
               style="stroke:none" />
          </symbol>
        </g>
      </defs>
      <g
         id="textext-f541f712-4">
        <g
           id="g9729"
           style="fill:#000000;fill-opacity:1">
          <use
             id="use9731"
             y="134.765"
             x="223.43201"
             xlink:href="#textext-f541f712-1"
             width="302.18106"
             height="163.9922" />
        </g>
        <g
           id="g9733"
           style="fill:#000000;fill-opacity:1">
          <use
             id="use9735"
             y="136.259"
             x="231.73399"
             xlink:href="#textext-f541f712-3"
             width="302.18106"
             height="163.9922" />
        </g>
      </g>
    </g>
    <path
       style="fill:none;fill-rule:evenodd;stroke:#000000;stroke-width:1px;stroke-linecap:butt;stroke-linejoin:miter;stroke-opacity:1"
       d="M 212.17743,137.55953 L 212.17743,130.47291"
       id="path10295" />
    <use
       x="0"
       y="0"
       xlink:href="#path7319"
       id="use10305"
       transform="translate(14.173312,67.322892)"
       width="302.18106"
       height="163.9922" />
    <use
       x="0"
       y="0"
       xlink:href="#use10305"
       id="use10307"
       transform="translate(28.346457,-4.9391769e-7)"
       width="302.18106"
       height="163.9922" />
    <use
       x="0"
       y="0"
       xlink:href="#use10307"
       id="use10309"
       transform="translate(28.346457,0)"
       width="302.18106"
       height="163.9922" />
    <use
       x="0"
       y="0"
       xlink:href="#use10309"
       id="use10311"
       transform="translate(28.346456,0)"
       width="302.18106"
       height="163.9922" />
    <use
       x="0"
       y="0"
       xlink:href="#use10311"
       id="use10313"
       transform="translate(28.346457,0)"
       width="302.18106"
       height="163.9922" />
    <path
       style="fill:none;fill-rule:evenodd;stroke:#000000;stroke-width:1px;stroke-linecap:butt;stroke-linejoin:miter;stroke-opacity:1"
       d="M 109.84252,43.519762 L 109.84252,36.433148"
       id="path10315"
       transform="translate(42.098691,47.976771)" />
    <path
       style="fill:none;fill-rule:evenodd;stroke:#000000;stroke-width:1px;stroke-linecap:butt;stroke-linejoin:miter;stroke-opacity:1"
       d="M 138.18898,43.519762 L 138.18898,36.433148"
       id="path10317"
       transform="translate(42.098691,47.976771)" />
    <path
       style="fill:none;fill-rule:evenodd;stroke:#000000;stroke-width:1px;stroke-linecap:butt;stroke-linejoin:miter;stroke-opacity:1"
       d="M 166.53543,43.519762 L 166.53543,36.433148"
       id="path10319"
       transform="translate(42.098691,47.976771)" />
    <path
       style="fill:none;fill-rule:evenodd;stroke:#000000;stroke-width:1px;stroke-linecap:butt;stroke-linejoin:miter;stroke-opacity:1"
       d="M 223.22835,43.519762 L 223.22835,36.433148"
       id="path10321"
       transform="translate(42.098691,47.976771)" />
    <path
       style="fill:none;fill-rule:evenodd;stroke:#000000;stroke-width:1px;stroke-linecap:butt;stroke-linejoin:miter;stroke-opacity:1"
       d="M 226.77165,89.582754 L 226.77165,82.49614"
       id="path10323"
       transform="translate(42.098691,47.976771)" />
    <use
       x="0"
       y="0"
       xlink:href="#use7465"
       id="use10325"
       transform="translate(28.346575,2.3597734e-2)"
       width="302.18106"
       height="163.9922" />
    <use
       x="0"
       y="0"
       xlink:href="#use10325"
       id="use10327"
       transform="translate(28.346456,0)"
       width="302.18106"
       height="163.9922" />
  </g>
</svg>
