<?xml version="1.0" encoding="UTF-8" standalone="no"?>
<!-- Created with Inkscape (http://www.inkscape.org/) -->
<svg
   xmlns:ns0="http://www.iki.fi/pav/software/textext/"
   xmlns:dc="http://purl.org/dc/elements/1.1/"
   xmlns:cc="http://creativecommons.org/ns#"
   xmlns:rdf="http://www.w3.org/1999/02/22-rdf-syntax-ns#"
   xmlns:svg="http://www.w3.org/2000/svg"
   xmlns="http://www.w3.org/2000/svg"
   xmlns:xlink="http://www.w3.org/1999/xlink"
   xmlns:sodipodi="http://sodipodi.sourceforge.net/DTD/sodipodi-0.dtd"
   xmlns:inkscape="http://www.inkscape.org/namespaces/inkscape"
   width="744.09448819"
   height="1052.3622047"
   id="svg15774"
   sodipodi:version="0.32"
   inkscape:version="0.46"
   sodipodi:docname="Clock Gating.svg"
   inkscape:output_extension="org.inkscape.output.svg.inkscape">
  <sodipodi:namedview
     id="base"
     pagecolor="#ffffff"
     bordercolor="#666666"
     borderopacity="1.0"
     gridtolerance="10000"
     guidetolerance="10"
     objecttolerance="10"
     inkscape:pageopacity="0.0"
     inkscape:pageshadow="2"
     inkscape:zoom="4.7605966"
     inkscape:cx="1771.5337"
     inkscape:cy="-36.705358"
     inkscape:document-units="mm"
     inkscape:current-layer="layer1"
     showgrid="true">
    <inkscape:grid
       enabled="true"
       visible="true"
       units="mm"
       id="grid15824"
       type="xygrid" />
  </sodipodi:namedview>
  <defs
     id="defs15776">
    <inkscape:perspective
       id="perspective15782"
       inkscape:persp3d-origin="372.04724 : 350.78739 : 1"
       inkscape:vp_z="744.09448 : 526.18109 : 1"
       inkscape:vp_y="0 : 1000 : 0"
       inkscape:vp_x="0 : 526.18109 : 1"
       sodipodi:type="inkscape:persp3d" />
    <inkscape:perspective
       sodipodi:type="inkscape:persp3d"
       inkscape:vp_x="0 : 526.18109 : 1"
       inkscape:vp_y="0 : 1000 : 0"
       inkscape:vp_z="744.09448 : 526.18109 : 1"
       inkscape:persp3d-origin="372.04724 : 350.78739 : 1"
       id="perspective6218" />
    <inkscape:perspective
       sodipodi:type="inkscape:persp3d"
       inkscape:vp_x="0 : 526.18109 : 1"
       inkscape:vp_y="0 : 1000 : 0"
       inkscape:vp_z="744.09448 : 526.18109 : 1"
       inkscape:persp3d-origin="372.04724 : 350.78739 : 1"
       id="perspective15998" />
  </defs>
  <metadata
     id="metadata15779">
    <rdf:RDF>
      <cc:Work
         rdf:about="">
        <dc:format>image/svg+xml</dc:format>
        <dc:type
           rdf:resource="http://purl.org/dc/dcmitype/StillImage" />
      </cc:Work>
    </rdf:RDF>
  </metadata>
  <g
     id="layer1"
     inkscape:groupmode="layer"
     inkscape:label="Layer 1">
    <g
       inkscape:label="Layer 1"
       id="g15821"
       transform="translate(1719.5041,1045.2756)">
      <path
         id="AND"
         style="fill:none;fill-rule:evenodd;stroke:#000000;stroke-width:1px;stroke-linecap:butt;stroke-linejoin:miter;stroke-opacity:1"
         d="M 9.6297497,56.692931 L 9.6297497,70.866131 C 9.6297497,70.866131 16.71645,70.866131 20.25975,70.866131 C 23.80305,70.866131 27.34635,67.322831 27.34635,63.779531 C 27.34635,60.236231 23.80305,56.692931 20.25975,56.692931 C 16.71645,56.692931 9.6002497,56.627631 9.6297497,56.692931 z M 9.6297497,60.236231 L 2.54305,60.236231 L 2.54305,60.236231 M 9.6297497,67.322831 L 2.54305,67.322831 M 27.34625,63.779531 L 34.43285,63.779531"
         inkscape:label="AND Gate" />
    </g>
    <g
       id="g15839"
       ns0:preamble="/home/anthony/thesis/images/inkscape-tex-preamble.tex"
       ns0:text="D"
       transform="matrix(1.91,0,0,1.91,1333.4765,815.04331)">
      <defs
         id="defs15841">
        <g
           id="g15843">
          <symbol
             style="overflow:visible"
             id="textext-341e8d01-0"
             overflow="visible">
            <path
               id="path15846"
               d=""
               style="stroke:none" />
          </symbol>
          <symbol
             style="overflow:visible"
             id="textext-341e8d01-1"
             overflow="visible">
            <path
               id="path15849"
               d="M 0.34375,-6.8125 L 0.34375,-6.5 L 0.59375,-6.5 C 1.359375,-6.5 1.375,-6.390625 1.375,-6.03125 L 1.375,-0.78125 C 1.375,-0.421875 1.359375,-0.3125 0.59375,-0.3125 L 0.34375,-0.3125 L 0.34375,0 L 4,0 C 5.671875,0 7.046875,-1.46875 7.046875,-3.34375 C 7.046875,-5.25 5.703125,-6.8125 4,-6.8125 L 0.34375,-6.8125 z M 2.71875,-0.3125 C 2.25,-0.3125 2.234375,-0.375 2.234375,-0.703125 L 2.234375,-6.09375 C 2.234375,-6.4375 2.25,-6.5 2.71875,-6.5 L 3.71875,-6.5 C 4.34375,-6.5 5.03125,-6.28125 5.53125,-5.578125 C 5.96875,-4.984375 6.046875,-4.125 6.046875,-3.34375 C 6.046875,-2.25 5.859375,-1.640625 5.5,-1.15625 C 5.296875,-0.890625 4.734375,-0.3125 3.734375,-0.3125 L 2.71875,-0.3125 z"
               style="stroke:none" />
          </symbol>
        </g>
      </defs>
      <g
         id="textext-341e8d01-2">
        <g
           id="g15852"
           style="fill:#000000;fill-opacity:1">
          <use
             transform="translate(1.5877744e-2,-4.329884e-2)"
             height="1052.3622"
             width="744.09448"
             id="use15854"
             y="134.765"
             x="223.43201"
             xlink:href="#textext-341e8d01-1" />
        </g>
      </g>
    </g>
    <g
       transform="matrix(1.91,0,0,1.91,1374.1876,815.46795)"
       ns0:text="Q"
       ns0:preamble="/home/anthony/thesis/images/inkscape-tex-preamble.tex"
       id="g15896">
      <defs
         id="defs15898">
        <g
           id="g15900">
          <symbol
             style="overflow:visible"
             overflow="visible"
             id="textext-028f0d8b-0">
            <path
               style="stroke:none"
               d=""
               id="path15903" />
          </symbol>
          <symbol
             style="overflow:visible"
             overflow="visible"
             id="textext-028f0d8b-1">
            <path
               style="stroke:none"
               d="M 5.15625,-0.0625 C 6.34375,-0.59375 7.1875,-1.875 7.1875,-3.375 C 7.1875,-5.40625 5.6875,-7.03125 3.875,-7.03125 C 2.078125,-7.03125 0.5625,-5.4375 0.5625,-3.375 C 0.5625,-1.359375 2.0625,0.21875 3.875,0.21875 C 4.1875,0.21875 4.53125,0.15625 4.828125,0.0625 C 4.96875,1.015625 5.109375,1.9375 6.046875,1.9375 C 7.0625,1.9375 7.25,0.609375 7.25,0.09375 C 7.25,0 7.25,-0.109375 7.140625,-0.109375 C 7.046875,-0.109375 7.03125,-0.03125 7.03125,0.0625 C 6.96875,0.609375 6.546875,0.90625 6.125,0.90625 C 5.65625,0.90625 5.40625,0.5625 5.15625,-0.0625 z M 3.203125,-0.15625 C 2.671875,-0.359375 1.5625,-1.09375 1.5625,-3.375 C 1.5625,-5.96875 2.953125,-6.78125 3.875,-6.78125 C 4.828125,-6.78125 6.1875,-5.921875 6.1875,-3.375 C 6.1875,-2.609375 6.078125,-1.203125 5.015625,-0.421875 C 4.796875,-0.984375 4.46875,-1.46875 3.890625,-1.46875 C 3.375,-1.46875 3.078125,-1.046875 3.078125,-0.640625 C 3.078125,-0.375 3.203125,-0.171875 3.203125,-0.15625 z M 4.75,-0.265625 C 4.421875,-0.0625 4.09375,-0.03125 3.875,-0.03125 C 3.375,-0.03125 3.296875,-0.484375 3.296875,-0.640625 C 3.296875,-0.921875 3.5,-1.25 3.890625,-1.25 C 4.421875,-1.25 4.640625,-0.84375 4.75,-0.265625 z"
               id="path15906" />
          </symbol>
        </g>
      </defs>
      <g
         id="textext-028f0d8b-2">
        <g
           style="fill:#000000;fill-opacity:1"
           id="g15909">
          <use
             height="1052.3622"
             width="744.09448"
             xlink:href="#textext-028f0d8b-1"
             x="223.43201"
             y="134.765"
             id="use15911" />
        </g>
      </g>
    </g>
    <path
       id="path15942"
       d="M 1753.937,1116.1417 L 1761.0236,1109.0551 L 1753.937,1101.9685"
       style="fill:none;fill-rule:evenodd;stroke:#000000;stroke-width:1px;stroke-linecap:butt;stroke-linejoin:miter;stroke-opacity:1" />
    <path
       sodipodi:nodetypes="cc"
       id="path15944"
       d="M 1753.937,1066.5354 L 1718.5039,1066.5354"
       style="fill:none;fill-rule:evenodd;stroke:#000000;stroke-width:1px;stroke-linecap:butt;stroke-linejoin:miter;stroke-opacity:1" />
    <path
       id="path15946"
       d="M 1824.8031,1066.5354 L 1860.2362,1066.5354"
       style="fill:none;fill-rule:evenodd;stroke:#000000;stroke-width:1px;stroke-linecap:butt;stroke-linejoin:miter;stroke-opacity:1"
       sodipodi:nodetypes="cc" />
    <path
       sodipodi:nodetypes="cccc"
       id="path16009"
       d="M 1722.0472,1105.5118 L 1718.5039,1105.5118 L 1718.5039,1094.8819 L 1711.4173,1094.8819"
       style="fill:none;fill-rule:evenodd;stroke:#000000;stroke-width:1px;stroke-linecap:butt;stroke-linejoin:miter;stroke-opacity:1" />
    <path
       sodipodi:nodetypes="cccc"
       id="path16011"
       d="M 1722.0472,1112.5984 L 1718.5039,1112.5984 L 1718.5039,1123.2283 L 1711.4173,1123.2283"
       style="fill:none;fill-rule:evenodd;stroke:#000000;stroke-width:1px;stroke-linecap:butt;stroke-linejoin:miter;stroke-opacity:1" />
    <rect
       y="1052.3622"
       x="1753.937"
       height="70.866142"
       width="70.866135"
       id="rect15826"
       style="fill:none;fill-opacity:1;stroke:#666666;stroke-width:2;stroke-linecap:butt;stroke-linejoin:miter;stroke-miterlimit:4;stroke-dasharray:none" />
    <g
       id="g16075"
       ns0:preamble="/home/anthony/thesis/images/inkscape-tex-preamble.tex"
       ns0:text="Clk"
       transform="matrix(1.91,0,0,1.91,1338.4667,858.3837)">
      <defs
         id="defs16077">
        <g
           id="g16079">
          <symbol
             style="overflow:visible"
             id="textext-67de063b-0"
             overflow="visible">
            <path
               id="path16082"
               d=""
               style="stroke:none" />
          </symbol>
          <symbol
             style="overflow:visible"
             id="textext-67de063b-1"
             overflow="visible">
            <path
               id="path16085"
               d="M 6.625,-6.78125 C 6.625,-6.953125 6.625,-7.03125 6.515625,-7.03125 C 6.484375,-7.03125 6.4375,-7.03125 6.359375,-6.90625 L 5.859375,-6.171875 C 5.5,-6.53125 4.984375,-7.03125 4.03125,-7.03125 C 2.15625,-7.03125 0.5625,-5.4375 0.5625,-3.40625 C 0.5625,-1.34375 2.171875,0.21875 4.03125,0.21875 C 5.65625,0.21875 6.625,-1.171875 6.625,-2.328125 C 6.625,-2.421875 6.625,-2.5 6.5,-2.5 C 6.390625,-2.5 6.390625,-2.4375 6.375,-2.328125 C 6.296875,-0.90625 5.234375,-0.09375 4.140625,-0.09375 C 3.53125,-0.09375 1.578125,-0.421875 1.578125,-3.40625 C 1.578125,-6.375 3.53125,-6.71875 4.140625,-6.71875 C 5.21875,-6.71875 6.109375,-5.8125 6.3125,-4.359375 C 6.328125,-4.21875 6.328125,-4.1875 6.46875,-4.1875 C 6.625,-4.1875 6.625,-4.21875 6.625,-4.421875 L 6.625,-6.78125 z"
               style="stroke:none" />
          </symbol>
          <symbol
             style="overflow:visible"
             id="textext-67de063b-2"
             overflow="visible">
            <path
               id="path16088"
               d="M 1.765625,-6.921875 L 0.328125,-6.8125 L 0.328125,-6.5 C 1.03125,-6.5 1.109375,-6.4375 1.109375,-5.9375 L 1.109375,-0.75 C 1.109375,-0.3125 1,-0.3125 0.328125,-0.3125 L 0.328125,0 C 0.65625,-0.015625 1.1875,-0.03125 1.4375,-0.03125 C 1.6875,-0.03125 2.171875,-0.015625 2.546875,0 L 2.546875,-0.3125 C 1.875,-0.3125 1.765625,-0.3125 1.765625,-0.75 L 1.765625,-6.921875 z"
               style="stroke:none" />
          </symbol>
          <symbol
             style="overflow:visible"
             id="textext-67de063b-3"
             overflow="visible">
            <path
               id="path16091"
               d="M 2.859375,-2.625 C 2.84375,-2.640625 2.796875,-2.703125 2.796875,-2.734375 C 2.796875,-2.765625 3.515625,-3.375 3.609375,-3.453125 C 4.234375,-3.953125 4.65625,-3.984375 4.859375,-3.984375 L 4.859375,-4.296875 C 4.578125,-4.265625 4.453125,-4.265625 4.171875,-4.265625 C 3.8125,-4.265625 3.1875,-4.28125 3.046875,-4.296875 L 3.046875,-3.984375 C 3.234375,-3.984375 3.34375,-3.875 3.34375,-3.734375 C 3.34375,-3.53125 3.203125,-3.421875 3.125,-3.34375 L 1.71875,-2.140625 L 1.71875,-6.921875 L 0.28125,-6.8125 L 0.28125,-6.5 C 0.984375,-6.5 1.0625,-6.4375 1.0625,-5.9375 L 1.0625,-0.75 C 1.0625,-0.3125 0.953125,-0.3125 0.28125,-0.3125 L 0.28125,0 C 0.609375,-0.015625 1.078125,-0.03125 1.359375,-0.03125 C 1.671875,-0.03125 2.0625,-0.015625 2.46875,0 L 2.46875,-0.3125 C 1.796875,-0.3125 1.6875,-0.3125 1.6875,-0.75 L 1.6875,-1.78125 L 2.328125,-2.328125 C 3.09375,-1.28125 3.515625,-0.71875 3.515625,-0.53125 C 3.515625,-0.34375 3.34375,-0.3125 3.15625,-0.3125 L 3.15625,0 C 3.421875,-0.015625 4.015625,-0.03125 4.234375,-0.03125 C 4.515625,-0.03125 4.8125,-0.015625 5.09375,0 L 5.09375,-0.3125 C 4.71875,-0.3125 4.5,-0.3125 4.125,-0.84375 L 2.859375,-2.625 z"
               style="stroke:none" />
          </symbol>
        </g>
      </defs>
      <g
         id="textext-67de063b-4">
        <g
           id="g16094"
           style="fill:#000000;fill-opacity:1">
          <use
             height="1052.3622"
             width="744.09448"
             id="use16096"
             y="134.765"
             x="223.43201"
             xlink:href="#textext-67de063b-1" />
          <use
             height="1052.3622"
             width="744.09448"
             id="use16098"
             y="134.765"
             x="230.62698"
             xlink:href="#textext-67de063b-2" />
          <use
             height="1052.3622"
             width="744.09448"
             id="use16100"
             y="134.765"
             x="233.39461"
             xlink:href="#textext-67de063b-3" />
        </g>
      </g>
    </g>
    <g
       transform="matrix(1.91,0,0,1.91,1254.5017,841.19626)"
       ns0:text="Clk"
       ns0:preamble="/home/anthony/thesis/images/inkscape-tex-preamble.tex"
       id="g16216">
      <defs
         id="defs16218">
        <g
           id="g16220">
          <symbol
             style="overflow:visible"
             overflow="visible"
             id="symbol16222">
            <path
               style="stroke:none"
               d=""
               id="path16224" />
          </symbol>
          <symbol
             style="overflow:visible"
             overflow="visible"
             id="symbol16226">
            <path
               style="stroke:none"
               d="M 6.625,-6.78125 C 6.625,-6.953125 6.625,-7.03125 6.515625,-7.03125 C 6.484375,-7.03125 6.4375,-7.03125 6.359375,-6.90625 L 5.859375,-6.171875 C 5.5,-6.53125 4.984375,-7.03125 4.03125,-7.03125 C 2.15625,-7.03125 0.5625,-5.4375 0.5625,-3.40625 C 0.5625,-1.34375 2.171875,0.21875 4.03125,0.21875 C 5.65625,0.21875 6.625,-1.171875 6.625,-2.328125 C 6.625,-2.421875 6.625,-2.5 6.5,-2.5 C 6.390625,-2.5 6.390625,-2.4375 6.375,-2.328125 C 6.296875,-0.90625 5.234375,-0.09375 4.140625,-0.09375 C 3.53125,-0.09375 1.578125,-0.421875 1.578125,-3.40625 C 1.578125,-6.375 3.53125,-6.71875 4.140625,-6.71875 C 5.21875,-6.71875 6.109375,-5.8125 6.3125,-4.359375 C 6.328125,-4.21875 6.328125,-4.1875 6.46875,-4.1875 C 6.625,-4.1875 6.625,-4.21875 6.625,-4.421875 L 6.625,-6.78125 z"
               id="path16228" />
          </symbol>
          <symbol
             style="overflow:visible"
             overflow="visible"
             id="symbol16230">
            <path
               style="stroke:none"
               d="M 1.765625,-6.921875 L 0.328125,-6.8125 L 0.328125,-6.5 C 1.03125,-6.5 1.109375,-6.4375 1.109375,-5.9375 L 1.109375,-0.75 C 1.109375,-0.3125 1,-0.3125 0.328125,-0.3125 L 0.328125,0 C 0.65625,-0.015625 1.1875,-0.03125 1.4375,-0.03125 C 1.6875,-0.03125 2.171875,-0.015625 2.546875,0 L 2.546875,-0.3125 C 1.875,-0.3125 1.765625,-0.3125 1.765625,-0.75 L 1.765625,-6.921875 z"
               id="path16232" />
          </symbol>
          <symbol
             style="overflow:visible"
             overflow="visible"
             id="symbol16234">
            <path
               style="stroke:none"
               d="M 2.859375,-2.625 C 2.84375,-2.640625 2.796875,-2.703125 2.796875,-2.734375 C 2.796875,-2.765625 3.515625,-3.375 3.609375,-3.453125 C 4.234375,-3.953125 4.65625,-3.984375 4.859375,-3.984375 L 4.859375,-4.296875 C 4.578125,-4.265625 4.453125,-4.265625 4.171875,-4.265625 C 3.8125,-4.265625 3.1875,-4.28125 3.046875,-4.296875 L 3.046875,-3.984375 C 3.234375,-3.984375 3.34375,-3.875 3.34375,-3.734375 C 3.34375,-3.53125 3.203125,-3.421875 3.125,-3.34375 L 1.71875,-2.140625 L 1.71875,-6.921875 L 0.28125,-6.8125 L 0.28125,-6.5 C 0.984375,-6.5 1.0625,-6.4375 1.0625,-5.9375 L 1.0625,-0.75 C 1.0625,-0.3125 0.953125,-0.3125 0.28125,-0.3125 L 0.28125,0 C 0.609375,-0.015625 1.078125,-0.03125 1.359375,-0.03125 C 1.671875,-0.03125 2.0625,-0.015625 2.46875,0 L 2.46875,-0.3125 C 1.796875,-0.3125 1.6875,-0.3125 1.6875,-0.75 L 1.6875,-1.78125 L 2.328125,-2.328125 C 3.09375,-1.28125 3.515625,-0.71875 3.515625,-0.53125 C 3.515625,-0.34375 3.34375,-0.3125 3.15625,-0.3125 L 3.15625,0 C 3.421875,-0.015625 4.015625,-0.03125 4.234375,-0.03125 C 4.515625,-0.03125 4.8125,-0.015625 5.09375,0 L 5.09375,-0.3125 C 4.71875,-0.3125 4.5,-0.3125 4.125,-0.84375 L 2.859375,-2.625 z"
               id="path16236" />
          </symbol>
        </g>
      </defs>
      <g
         id="g16238">
        <g
           style="fill:#000000;fill-opacity:1"
           id="g16240">
          <use
             height="1052.3622"
             width="744.09448"
             xlink:href="#textext-67de063b-1"
             x="223.43201"
             y="134.765"
             id="use16242" />
          <use
             height="1052.3622"
             width="744.09448"
             xlink:href="#textext-67de063b-2"
             x="230.62698"
             y="134.765"
             id="use16244" />
          <use
             height="1052.3622"
             width="744.09448"
             xlink:href="#textext-67de063b-3"
             x="233.39461"
             y="134.765"
             id="use16246" />
        </g>
      </g>
    </g>
    <g
       id="g16849"
       transform="matrix(1.91,0,0,1.91,1260.1318,869.37175)"
       ns0:preamble="/home/anthony/thesis/images/inkscape-tex-preamble.tex"
       ns0:text="En">
      <defs
         id="defs16851">
        <g
           id="g16853">
          <symbol
             id="textext-d2b4a996-0"
             overflow="visible"
             style="overflow:visible">
            <path
               id="path16856"
               d=""
               style="stroke:none" />
          </symbol>
          <symbol
             id="textext-d2b4a996-1"
             overflow="visible"
             style="overflow:visible">
            <path
               id="path16859"
               d="M 6.5,-2.578125 L 6.25,-2.578125 C 6,-1.03125 5.765625,-0.3125 4.0625,-0.3125 L 2.734375,-0.3125 C 2.265625,-0.3125 2.25,-0.375 2.25,-0.703125 L 2.25,-3.375 L 3.140625,-3.375 C 4.109375,-3.375 4.21875,-3.046875 4.21875,-2.203125 L 4.46875,-2.203125 L 4.46875,-4.84375 L 4.21875,-4.84375 C 4.21875,-3.984375 4.109375,-3.671875 3.140625,-3.671875 L 2.25,-3.671875 L 2.25,-6.078125 C 2.25,-6.40625 2.265625,-6.46875 2.734375,-6.46875 L 4.015625,-6.46875 C 5.546875,-6.46875 5.8125,-5.921875 5.96875,-4.53125 L 6.21875,-4.53125 L 5.9375,-6.78125 L 0.328125,-6.78125 L 0.328125,-6.46875 L 0.5625,-6.46875 C 1.328125,-6.46875 1.359375,-6.359375 1.359375,-6 L 1.359375,-0.78125 C 1.359375,-0.421875 1.328125,-0.3125 0.5625,-0.3125 L 0.328125,-0.3125 L 0.328125,0 L 6.078125,0 L 6.5,-2.578125 z"
               style="stroke:none" />
          </symbol>
          <symbol
             id="textext-d2b4a996-2"
             overflow="visible"
             style="overflow:visible">
            <path
               id="path16862"
               d="M 1.09375,-3.421875 L 1.09375,-0.75 C 1.09375,-0.3125 0.984375,-0.3125 0.3125,-0.3125 L 0.3125,0 C 0.671875,-0.015625 1.171875,-0.03125 1.453125,-0.03125 C 1.703125,-0.03125 2.21875,-0.015625 2.5625,0 L 2.5625,-0.3125 C 1.890625,-0.3125 1.78125,-0.3125 1.78125,-0.75 L 1.78125,-2.59375 C 1.78125,-3.625 2.5,-4.1875 3.125,-4.1875 C 3.765625,-4.1875 3.875,-3.65625 3.875,-3.078125 L 3.875,-0.75 C 3.875,-0.3125 3.765625,-0.3125 3.09375,-0.3125 L 3.09375,0 C 3.4375,-0.015625 3.953125,-0.03125 4.21875,-0.03125 C 4.46875,-0.03125 5,-0.015625 5.328125,0 L 5.328125,-0.3125 C 4.8125,-0.3125 4.5625,-0.3125 4.5625,-0.609375 L 4.5625,-2.515625 C 4.5625,-3.375 4.5625,-3.671875 4.25,-4.03125 C 4.109375,-4.203125 3.78125,-4.40625 3.203125,-4.40625 C 2.46875,-4.40625 2,-3.984375 1.71875,-3.359375 L 1.71875,-4.40625 L 0.3125,-4.296875 L 0.3125,-3.984375 C 1.015625,-3.984375 1.09375,-3.921875 1.09375,-3.421875 z"
               style="stroke:none" />
          </symbol>
        </g>
      </defs>
      <g
         id="textext-d2b4a996-3">
        <g
           id="g16865"
           style="fill:#000000;fill-opacity:1">
          <use
             id="use16867"
             y="134.765"
             x="223.43201"
             xlink:href="#textext-d2b4a996-1"
             width="744.09448"
             height="1052.3622" />
          <use
             id="use16869"
             y="134.765"
             x="230.21254"
             xlink:href="#textext-d2b4a996-2"
             width="744.09448"
             height="1052.3622" />
        </g>
      </g>
    </g>
  </g>
</svg>
