<?xml version="1.0" encoding="UTF-8" standalone="no"?>
<!-- Created with Inkscape (http://www.inkscape.org/) -->
<svg
   xmlns:ns0="http://www.iki.fi/pav/software/textext/"
   xmlns:dc="http://purl.org/dc/elements/1.1/"
   xmlns:cc="http://creativecommons.org/ns#"
   xmlns:rdf="http://www.w3.org/1999/02/22-rdf-syntax-ns#"
   xmlns:svg="http://www.w3.org/2000/svg"
   xmlns="http://www.w3.org/2000/svg"
   xmlns:xlink="http://www.w3.org/1999/xlink"
   xmlns:sodipodi="http://sodipodi.sourceforge.net/DTD/sodipodi-0.dtd"
   xmlns:inkscape="http://www.inkscape.org/namespaces/inkscape"
   width="478.34644"
   height="318.89764"
   id="svg10329"
   sodipodi:version="0.32"
   inkscape:version="0.46"
   version="1.0"
   sodipodi:docname="MALU - Wrapper.svg"
   inkscape:output_extension="org.inkscape.output.svg.inkscape">
  <sodipodi:namedview
     id="base"
     pagecolor="#ffffff"
     bordercolor="#666666"
     borderopacity="1.0"
     gridtolerance="10000"
     guidetolerance="10"
     objecttolerance="10"
     inkscape:pageopacity="0.0"
     inkscape:pageshadow="2"
     inkscape:zoom="1.2575973"
     inkscape:cx="251.69056"
     inkscape:cy="159.44862"
     inkscape:document-units="mm"
     inkscape:current-layer="layer1"
     showgrid="true"
     units="mm"
     inkscape:snap-global="true">
    <inkscape:grid
       enabled="true"
       visible="true"
       units="mm"
       id="grid10339"
       type="xygrid" />
  </sodipodi:namedview>
  <defs
     id="defs10331">
    <marker
       inkscape:stockid="Arrow2Sstart"
       orient="auto"
       refY="0"
       refX="0"
       id="Arrow2Sstart"
       style="overflow:visible">
      <path
         id="path8078"
         style="font-size:12px;fill-rule:evenodd;stroke-width:0.625;stroke-linejoin:round"
         d="M 8.7185878,4.0337352 L -2.2072895,0.016013256 L 8.7185884,-4.0017078 C 6.97309,-1.6296469 6.9831476,1.6157441 8.7185878,4.0337352 z"
         transform="matrix(0.3,0,0,0.3,-0.69,0)" />
    </marker>
    <marker
       inkscape:stockid="Arrow2Mstart"
       orient="auto"
       refY="0"
       refX="0"
       id="Arrow2Mstart"
       style="overflow:visible">
      <path
         id="path4079"
         style="font-size:12px;fill-rule:evenodd;stroke-width:0.625;stroke-linejoin:round"
         d="M 8.7185878,4.0337352 L -2.2072895,0.016013256 L 8.7185884,-4.0017078 C 6.97309,-1.6296469 6.9831476,1.6157441 8.7185878,4.0337352 z"
         transform="scale(0.6,0.6)" />
    </marker>
    <marker
       inkscape:stockid="Arrow1Lstart"
       orient="auto"
       refY="0"
       refX="0"
       id="Arrow1Lstart"
       style="overflow:visible">
      <path
         id="path4055"
         d="M 0,0 L 5,-5 L -12.5,0 L 5,5 L 0,0 z"
         style="fill-rule:evenodd;stroke:#000000;stroke-width:1pt;marker-start:none"
         transform="matrix(0.8,0,0,0.8,10,0)" />
    </marker>
    <marker
       inkscape:stockid="Legs"
       orient="auto"
       refY="0"
       refX="0"
       id="Legs"
       style="overflow:visible">
      <g
         id="g4255"
         transform="scale(-0.7,-0.7)">
        <g
           id="g4257"
           transform="matrix(0,-1,-1,0,20.70862,21.31391)">
          <path
             id="path4259"
             d="M 21.22125,20.67536 C 14.311099,25.396517 18.766725,27.282204 15.380179,34.118595"
             style="fill:none;fill-opacity:0.75;fill-rule:evenodd;stroke:#000000;stroke-width:1pt;marker-start:none;marker-end:none" />
          <path
             id="path4261"
             d="M 21.39811,20.54812 C 20.037601,28.895644 24.934182,29.31806 25.903151,34.373078"
             style="fill:none;fill-opacity:0.75;fill-rule:evenodd;stroke:#000000;stroke-width:1pt;marker-start:none;marker-end:none" />
        </g>
        <path
           id="path4263"
           d="M -14.09007,-6.7318716 L -15.012238,-2.6884886 L -11.049487,-3.9115586 L -14.09007,-6.7318716 z"
           style="fill:#030300;fill-rule:evenodd;stroke-width:1pt;marker-end:none" />
        <path
           id="path4265"
           d="M -15.215679,4.5567534 L -13.341552,8.2563664 L -11.074678,4.7835114 L -15.215679,4.5567534 z"
           style="fill:#030300;fill-rule:evenodd;stroke-width:1pt;marker-end:none" />
      </g>
    </marker>
    <marker
       inkscape:stockid="TriangleOutM"
       orient="auto"
       refY="0"
       refX="0"
       id="TriangleOutM"
       style="overflow:visible">
      <path
         id="path4201"
         d="M 5.77,0 L -2.88,5 L -2.88,-5 L 5.77,0 z"
         style="fill-rule:evenodd;stroke:#000000;stroke-width:1pt;marker-start:none"
         transform="scale(0.4,0.4)" />
    </marker>
    <marker
       inkscape:stockid="Arrow2Send"
       orient="auto"
       refY="0"
       refX="0"
       id="Arrow2Send"
       style="overflow:visible">
      <path
         id="path4088"
         style="font-size:12px;fill-rule:evenodd;stroke-width:0.625;stroke-linejoin:round"
         d="M 8.7185878,4.0337352 L -2.2072895,0.016013256 L 8.7185884,-4.0017078 C 6.97309,-1.6296469 6.9831476,1.6157441 8.7185878,4.0337352 z"
         transform="matrix(-0.3,0,0,-0.3,0.69,0)" />
    </marker>
    <marker
       inkscape:stockid="Arrow2Mend"
       orient="auto"
       refY="0"
       refX="0"
       id="Arrow2Mend"
       style="overflow:visible">
      <path
         id="path4082"
         style="font-size:12px;fill-rule:evenodd;stroke-width:0.625;stroke-linejoin:round"
         d="M 8.7185878,4.0337352 L -2.2072895,0.016013256 L 8.7185884,-4.0017078 C 6.97309,-1.6296469 6.9831476,1.6157441 8.7185878,4.0337352 z"
         transform="scale(-0.6,-0.6)" />
    </marker>
    <marker
       inkscape:stockid="Arrow1Lend"
       orient="auto"
       refY="0"
       refX="0"
       id="Arrow1Lend"
       style="overflow:visible">
      <path
         id="path4058"
         d="M 0,0 L 5,-5 L -12.5,0 L 5,5 L 0,0 z"
         style="fill-rule:evenodd;stroke:#000000;stroke-width:1pt;marker-start:none"
         transform="matrix(-0.8,0,0,-0.8,-10,0)" />
    </marker>
    <marker
       inkscape:stockid="Arrow1Mend"
       orient="auto"
       refY="0"
       refX="0"
       id="Arrow1Mend"
       style="overflow:visible">
      <path
         id="path4064"
         d="M 0,0 L 5,-5 L -12.5,0 L 5,5 L 0,0 z"
         style="fill-rule:evenodd;stroke:#000000;stroke-width:1pt;marker-start:none"
         transform="matrix(-0.4,0,0,-0.4,-4,0)" />
    </marker>
    <inkscape:perspective
       id="perspective10337"
       inkscape:persp3d-origin="372.04724 : 350.78739 : 1"
       inkscape:vp_z="744.09448 : 526.18109 : 1"
       inkscape:vp_y="0 : 1000 : 0"
       inkscape:vp_x="0 : 526.18109 : 1"
       sodipodi:type="inkscape:persp3d" />
    <inkscape:perspective
       id="perspective6218"
       inkscape:persp3d-origin="372.04724 : 350.78739 : 1"
       inkscape:vp_z="744.09448 : 526.18109 : 1"
       inkscape:vp_y="0 : 1000 : 0"
       inkscape:vp_x="0 : 526.18109 : 1"
       sodipodi:type="inkscape:persp3d" />
    <inkscape:perspective
       id="perspective9195"
       inkscape:persp3d-origin="372.04724 : 350.78739 : 1"
       inkscape:vp_z="744.09448 : 526.18109 : 1"
       inkscape:vp_y="0 : 1000 : 0"
       inkscape:vp_x="0 : 526.18109 : 1"
       sodipodi:type="inkscape:persp3d" />
    <inkscape:perspective
       id="perspective12817"
       inkscape:persp3d-origin="372.04724 : 350.78739 : 1"
       inkscape:vp_z="744.09448 : 526.18109 : 1"
       inkscape:vp_y="0 : 1000 : 0"
       inkscape:vp_x="0 : 526.18109 : 1"
       sodipodi:type="inkscape:persp3d" />
    <inkscape:perspective
       id="perspective2450"
       inkscape:persp3d-origin="372.04724 : 350.78739 : 1"
       inkscape:vp_z="744.09448 : 526.18109 : 1"
       inkscape:vp_y="0 : 1000 : 0"
       inkscape:vp_x="0 : 526.18109 : 1"
       sodipodi:type="inkscape:persp3d" />
    <defs
       id="defs15420">
      <g
         id="g15422">
        <symbol
           style="overflow:visible"
           overflow="visible"
           id="textext-8a4cbf58-0">
          <path
             style="stroke:none"
             d=""
             id="path15425" />
        </symbol>
        <symbol
           style="overflow:visible"
           overflow="visible"
           id="textext-8a4cbf58-1">
          <path
             style="stroke:none"
             d="M 2.9375,-6.375 C 2.9375,-6.625 2.9375,-6.640625 2.703125,-6.640625 C 2.078125,-6 1.203125,-6 0.890625,-6 L 0.890625,-5.6875 C 1.09375,-5.6875 1.671875,-5.6875 2.1875,-5.953125 L 2.1875,-0.78125 C 2.1875,-0.421875 2.15625,-0.3125 1.265625,-0.3125 L 0.953125,-0.3125 L 0.953125,0 C 1.296875,-0.03125 2.15625,-0.03125 2.5625,-0.03125 C 2.953125,-0.03125 3.828125,-0.03125 4.171875,0 L 4.171875,-0.3125 L 3.859375,-0.3125 C 2.953125,-0.3125 2.9375,-0.421875 2.9375,-0.78125 L 2.9375,-6.375 z"
             id="path15428" />
        </symbol>
        <symbol
           style="overflow:visible"
           overflow="visible"
           id="textext-8a4cbf58-2">
          <path
             style="stroke:none"
             d=""
             id="path15431" />
        </symbol>
        <symbol
           style="overflow:visible"
           overflow="visible"
           id="textext-8a4cbf58-3">
          <path
             style="stroke:none"
             d="M 6.171875,-5.234375 C 6.296875,-5.296875 6.359375,-5.328125 6.359375,-5.4375 C 6.359375,-5.578125 6.25,-5.640625 6.15625,-5.640625 C 6.109375,-5.640625 6.03125,-5.609375 5.984375,-5.578125 L 0.734375,-2.703125 C 0.609375,-2.625 0.5625,-2.609375 0.5625,-2.5 C 0.5625,-2.375 0.640625,-2.328125 0.734375,-2.265625 L 5.984375,0.59375 C 6.03125,0.625 6.09375,0.65625 6.15625,0.65625 C 6.296875,0.65625 6.359375,0.546875 6.359375,0.453125 C 6.359375,0.34375 6.296875,0.3125 6.171875,0.25 L 1.171875,-2.5 L 6.171875,-5.234375 z M 9.21875,-5.234375 C 9.34375,-5.296875 9.40625,-5.328125 9.40625,-5.4375 C 9.40625,-5.578125 9.296875,-5.640625 9.203125,-5.640625 C 9.15625,-5.640625 9.078125,-5.609375 9.03125,-5.578125 L 3.78125,-2.703125 C 3.65625,-2.625 3.59375,-2.609375 3.59375,-2.5 C 3.59375,-2.375 3.671875,-2.328125 3.78125,-2.265625 L 9.015625,0.59375 C 9.078125,0.625 9.125,0.65625 9.203125,0.65625 C 9.34375,0.65625 9.40625,0.546875 9.40625,0.453125 C 9.40625,0.34375 9.34375,0.3125 9.21875,0.25 L 4.21875,-2.5 L 9.21875,-5.234375 z"
             id="path15434" />
        </symbol>
      </g>
    </defs>
  </defs>
  <metadata
     id="metadata10334">
    <rdf:RDF>
      <cc:Work
         rdf:about="">
        <dc:format>image/svg+xml</dc:format>
        <dc:type
           rdf:resource="http://purl.org/dc/dcmitype/StillImage" />
      </cc:Work>
    </rdf:RDF>
  </metadata>
  <g
     transform="translate(-1628.4211,-875.1968)"
     id="layer1"
     inkscape:groupmode="layer"
     inkscape:label="Layer 1">
    <rect
       y="1080.7084"
       x="1823.2559"
       height="56.692913"
       width="106.29921"
       id="rect10341"
       style="fill:none;stroke:#666666;stroke-width:2;stroke-linecap:butt;stroke-linejoin:miter;stroke-miterlimit:4;stroke-dasharray:none" />
    <g
       id="g2571"
       transform="translate(34.88587,27.346483)">
      <g
         id="g11208"
         ns0:preamble=""
         ns0:text="T"
         transform="matrix(1.91,0,0,1.91,1407.9003,781.14725)">
        <defs
           id="defs11210">
          <g
             id="g11212">
            <symbol
               id="textext-565ff838-0"
               overflow="visible"
               style="overflow:visible">
              <path
                 id="path11215"
                 d=""
                 style="stroke:none" />
            </symbol>
            <symbol
               id="textext-565ff838-1"
               overflow="visible"
               style="overflow:visible">
              <path
                 id="path11218"
                 d="M 6.640625,-6.75 L 0.546875,-6.75 L 0.359375,-4.5 L 0.609375,-4.5 C 0.75,-6.109375 0.890625,-6.4375 2.40625,-6.4375 C 2.578125,-6.4375 2.84375,-6.4375 2.9375,-6.421875 C 3.15625,-6.375 3.15625,-6.265625 3.15625,-6.046875 L 3.15625,-0.78125 C 3.15625,-0.453125 3.15625,-0.3125 2.109375,-0.3125 L 1.703125,-0.3125 L 1.703125,0 C 2.109375,-0.03125 3.125,-0.03125 3.59375,-0.03125 C 4.046875,-0.03125 5.078125,-0.03125 5.484375,0 L 5.484375,-0.3125 L 5.078125,-0.3125 C 4.03125,-0.3125 4.03125,-0.453125 4.03125,-0.78125 L 4.03125,-6.046875 C 4.03125,-6.234375 4.03125,-6.375 4.21875,-6.421875 C 4.328125,-6.4375 4.59375,-6.4375 4.78125,-6.4375 C 6.296875,-6.4375 6.4375,-6.109375 6.578125,-4.5 L 6.828125,-4.5 L 6.640625,-6.75 z"
                 style="stroke:none" />
            </symbol>
          </g>
        </defs>
        <g
           id="textext-565ff838-2">
          <g
             id="g11221"
             style="fill:#000000;fill-opacity:1">
            <use
               id="use11223"
               y="134.765"
               x="223.43201"
               xlink:href="#textext-565ff838-1"
               width="72.866142"
               height="37.433071" />
          </g>
        </g>
      </g>
      <g
         id="g11263"
         transform="translate(-1.1023621e-6,-24.80315)">
        <rect
           style="fill:none;stroke:#000000;stroke-width:1;stroke-linecap:butt;stroke-linejoin:miter;stroke-miterlimit:4;stroke-dasharray:none"
           id="rect11178"
           width="70.865837"
           height="21.259573"
           x="1806.0865"
           y="1046.2755" />
        <path
           transform="translate(1717.5039,1069.0787)"
           id="path11261"
           d="M 159.44882,-22.803149 L 152.3622,-12.173228 L 159.44882,-1.5433068"
           style="fill:none;fill-rule:evenodd;stroke:#000000;stroke-width:1px;stroke-linecap:butt;stroke-linejoin:miter;stroke-opacity:1" />
      </g>
    </g>
    <g
       id="g11028"
       transform="translate(17.429117,9.2335437)">
      <use
         x="0"
         y="0"
         xlink:href="#g11263"
         id="use2423"
         transform="matrix(-1,0,0,1,3700.7561,-60.236182)"
         width="72.866142"
         height="37.433071" />
      <g
         transform="matrix(1.91,0,0,1.91,1425.3636,721.28427)"
         ns0:text="A"
         ns0:preamble=""
         id="g2630">
        <defs
           id="defs2632">
          <g
             id="g2634">
            <symbol
               style="overflow:visible"
               overflow="visible"
               id="textext-3b614c41-0">
              <path
                 style="stroke:none"
                 d=""
                 id="path2637" />
            </symbol>
            <symbol
               style="overflow:visible"
               overflow="visible"
               id="textext-3b614c41-1">
              <path
                 style="stroke:none"
                 d="M 3.96875,-6.9375 C 3.921875,-7.0625 3.890625,-7.140625 3.734375,-7.140625 C 3.578125,-7.140625 3.546875,-7.078125 3.5,-6.9375 L 1.4375,-0.984375 C 1.25,-0.46875 0.859375,-0.3125 0.3125,-0.3125 L 0.3125,0 C 0.546875,-0.015625 0.984375,-0.03125 1.328125,-0.03125 C 1.640625,-0.03125 2.15625,-0.015625 2.484375,0 L 2.484375,-0.3125 C 1.984375,-0.3125 1.734375,-0.5625 1.734375,-0.8125 C 1.734375,-0.84375 1.75,-0.953125 1.75,-0.96875 L 2.21875,-2.265625 L 4.671875,-2.265625 L 5.203125,-0.75 C 5.21875,-0.703125 5.234375,-0.640625 5.234375,-0.609375 C 5.234375,-0.3125 4.671875,-0.3125 4.40625,-0.3125 L 4.40625,0 C 4.765625,-0.03125 5.46875,-0.03125 5.84375,-0.03125 C 6.265625,-0.03125 6.734375,-0.015625 7.140625,0 L 7.140625,-0.3125 L 6.96875,-0.3125 C 6.375,-0.3125 6.234375,-0.375 6.125,-0.703125 L 3.96875,-6.9375 z M 3.4375,-5.828125 L 4.5625,-2.578125 L 2.328125,-2.578125 L 3.4375,-5.828125 z"
                 id="path2640" />
            </symbol>
          </g>
        </defs>
        <g
           id="textext-3b614c41-2">
          <g
             style="fill:#000000;fill-opacity:1"
             id="g2643">
            <use
               height="37.433071"
               width="72.866142"
               xlink:href="#textext-3b614c41-1"
               x="223.43201"
               y="134.765"
               id="use2645" />
          </g>
        </g>
      </g>
    </g>
    <g
       id="g11058"
       transform="translate(17.169322,9.62964)">
      <g
         transform="matrix(1.91,0,0,1.91,1424.4382,895.83856)"
         ns0:text="m"
         ns0:preamble=""
         id="g2896">
        <defs
           id="defs2898">
          <g
             id="g2900">
            <symbol
               style="overflow:visible"
               overflow="visible"
               id="textext-b2baa05f-0">
              <path
                 style="stroke:none"
                 d=""
                 id="path2903" />
            </symbol>
            <symbol
               style="overflow:visible"
               overflow="visible"
               id="textext-b2baa05f-1">
              <path
                 style="stroke:none"
                 d="M 1.09375,-3.421875 L 1.09375,-0.75 C 1.09375,-0.3125 0.984375,-0.3125 0.3125,-0.3125 L 0.3125,0 C 0.671875,-0.015625 1.171875,-0.03125 1.453125,-0.03125 C 1.703125,-0.03125 2.21875,-0.015625 2.5625,0 L 2.5625,-0.3125 C 1.890625,-0.3125 1.78125,-0.3125 1.78125,-0.75 L 1.78125,-2.59375 C 1.78125,-3.625 2.5,-4.1875 3.125,-4.1875 C 3.765625,-4.1875 3.875,-3.65625 3.875,-3.078125 L 3.875,-0.75 C 3.875,-0.3125 3.765625,-0.3125 3.09375,-0.3125 L 3.09375,0 C 3.4375,-0.015625 3.953125,-0.03125 4.21875,-0.03125 C 4.46875,-0.03125 5,-0.015625 5.328125,0 L 5.328125,-0.3125 C 4.671875,-0.3125 4.5625,-0.3125 4.5625,-0.75 L 4.5625,-2.59375 C 4.5625,-3.625 5.265625,-4.1875 5.90625,-4.1875 C 6.53125,-4.1875 6.640625,-3.65625 6.640625,-3.078125 L 6.640625,-0.75 C 6.640625,-0.3125 6.53125,-0.3125 5.859375,-0.3125 L 5.859375,0 C 6.203125,-0.015625 6.71875,-0.03125 6.984375,-0.03125 C 7.25,-0.03125 7.765625,-0.015625 8.109375,0 L 8.109375,-0.3125 C 7.59375,-0.3125 7.34375,-0.3125 7.328125,-0.609375 L 7.328125,-2.515625 C 7.328125,-3.375 7.328125,-3.671875 7.015625,-4.03125 C 6.875,-4.203125 6.546875,-4.40625 5.96875,-4.40625 C 5.140625,-4.40625 4.6875,-3.8125 4.53125,-3.421875 C 4.390625,-4.296875 3.65625,-4.40625 3.203125,-4.40625 C 2.46875,-4.40625 2,-3.984375 1.71875,-3.359375 L 1.71875,-4.40625 L 0.3125,-4.296875 L 0.3125,-3.984375 C 1.015625,-3.984375 1.09375,-3.921875 1.09375,-3.421875 z"
                 id="path2906" />
            </symbol>
          </g>
        </defs>
        <g
           id="textext-b2baa05f-2">
          <g
             style="fill:#000000;fill-opacity:1"
             id="g2909">
            <use
               height="37.433071"
               width="72.866142"
               xlink:href="#textext-b2baa05f-1"
               x="223.43201"
               y="134.765"
               id="use2911" />
          </g>
        </g>
      </g>
      <g
         id="use2985"
         transform="translate(17.716532,92.126288)">
        <rect
           style="fill:none;stroke:#000000;stroke-width:1;stroke-linecap:butt;stroke-linejoin:miter;stroke-miterlimit:4;stroke-dasharray:none"
           id="rect11054"
           width="70.865837"
           height="21.259573"
           x="1806.0865"
           y="1046.2755" />
        <path
           transform="translate(1717.5039,1069.0787)"
           id="path11056"
           d="M 159.44882,-22.803149 L 152.3622,-12.173228 L 159.44882,-1.5433068"
           style="fill:none;fill-rule:evenodd;stroke:#000000;stroke-width:1px;stroke-linecap:butt;stroke-linejoin:miter;stroke-opacity:1" />
      </g>
    </g>
    <path
       style="fill:none;fill-rule:evenodd;stroke:#000000;stroke-width:1px;stroke-linecap:butt;stroke-linejoin:miter;marker-start:none;marker-end:none;stroke-opacity:1"
       d="M 1929.5551,1123.2281 L 1947.2716,1123.2281 L 1947.2716,1158.6612 L 1911.8386,1158.6612"
       id="path3278" />
    <path
       style="fill:none;fill-rule:evenodd;stroke:#000000;stroke-width:0.99921262;stroke-linecap:butt;stroke-linejoin:miter;marker-start:none;marker-end:none;stroke-miterlimit:4;stroke-dasharray:none;stroke-opacity:1"
       d="M 1840.9724,1158.6612 L 1805.5393,1158.6612 L 1805.5393,1123.2281 L 1823.2559,1123.2281"
       id="path3280" />
    <path
       style="fill:none;fill-rule:evenodd;stroke:#000000;stroke-width:2;stroke-linecap:butt;stroke-linejoin:miter;marker-start:none;marker-end:none;stroke-opacity:1"
       d="M 1840.9724,1059.4485 L 1823.2559,1059.4485 L 1805.5393,1059.4485 L 1805.5393,1094.8816 L 1823.2559,1094.8816"
       id="path9744"
       sodipodi:nodetypes="ccccc" />
    <path
       style="fill:none;fill-rule:evenodd;stroke:#000000;stroke-width:2;stroke-linecap:butt;stroke-linejoin:miter;marker-start:none;marker-end:none;stroke-opacity:1"
       d="M 1823.2559,1109.0548 L 1787.8228,1109.0548 L 1787.8228,1077.1651"
       id="path9746"
       sodipodi:nodetypes="ccc" />
    <path
       style="fill:none;fill-rule:evenodd;stroke:#000000;stroke-width:0.99921262;stroke-linecap:butt;stroke-linejoin:miter;marker-end:none;stroke-miterlimit:4;stroke-dasharray:none;stroke-opacity:1"
       d="M 1784.2795,1002.7556 L 1784.2795,1052.3619"
       id="path13233"
       sodipodi:nodetypes="cc" />
    <g
       id="g6322"
       transform="translate(176.61816,13.172933)">
      <path
         transform="translate(1728.1338,1061.9921)"
         d="M 49.606298,-54.692913 A 7.0866141,7.0866141 0 1 1 35.43307,-54.692913 A 7.0866141,7.0866141 0 1 1 49.606298,-54.692913 z"
         sodipodi:ry="7.0866141"
         sodipodi:rx="7.0866141"
         sodipodi:cy="-54.692913"
         sodipodi:cx="42.519684"
         id="path2492"
         style="fill:none;fill-rule:evenodd;stroke:#000000;stroke-width:1px;stroke-linecap:butt;stroke-linejoin:miter;stroke-opacity:1"
         sodipodi:type="arc" />
      <path
         id="path2497"
         d="M 1765.3385,1007.2992 L 1775.9684,1007.2992"
         style="fill:none;fill-rule:evenodd;stroke:#000000;stroke-width:1px;stroke-linecap:butt;stroke-linejoin:miter;stroke-opacity:1" />
      <path
         id="path2499"
         d="M 1770.6535,1001.9842 L 1770.6535,1012.6141"
         style="fill:none;fill-rule:evenodd;stroke:#000000;stroke-width:1px;stroke-linecap:butt;stroke-linejoin:miter;stroke-opacity:1" />
    </g>
    <g
       id="g5648"
       transform="translate(17.169411,9.6296393)">
      <g
         id="g5138"
         ns0:preamble=""
         ns0:text="Core"
         transform="matrix(2.3557035,0,0,2.3557035,1308.4187,800.56431)">
        <defs
           id="defs5140">
          <g
             id="g5142">
            <symbol
               style="overflow:visible"
               id="textext-757c57f6-0"
               overflow="visible">
              <path
                 id="path5145"
                 d=""
                 style="stroke:none" />
            </symbol>
            <symbol
               style="overflow:visible"
               id="textext-757c57f6-1"
               overflow="visible">
              <path
                 id="path5148"
                 d="M 6.625,-6.78125 C 6.625,-6.953125 6.625,-7.03125 6.515625,-7.03125 C 6.484375,-7.03125 6.4375,-7.03125 6.359375,-6.90625 L 5.859375,-6.171875 C 5.5,-6.53125 4.984375,-7.03125 4.03125,-7.03125 C 2.15625,-7.03125 0.5625,-5.4375 0.5625,-3.40625 C 0.5625,-1.34375 2.171875,0.21875 4.03125,0.21875 C 5.65625,0.21875 6.625,-1.171875 6.625,-2.328125 C 6.625,-2.421875 6.625,-2.5 6.5,-2.5 C 6.390625,-2.5 6.390625,-2.4375 6.375,-2.328125 C 6.296875,-0.90625 5.234375,-0.09375 4.140625,-0.09375 C 3.53125,-0.09375 1.578125,-0.421875 1.578125,-3.40625 C 1.578125,-6.375 3.53125,-6.71875 4.140625,-6.71875 C 5.21875,-6.71875 6.109375,-5.8125 6.3125,-4.359375 C 6.328125,-4.21875 6.328125,-4.1875 6.46875,-4.1875 C 6.625,-4.1875 6.625,-4.21875 6.625,-4.421875 L 6.625,-6.78125 z"
                 style="stroke:none" />
            </symbol>
            <symbol
               style="overflow:visible"
               id="textext-757c57f6-2"
               overflow="visible">
              <path
                 id="path5151"
                 d="M 4.6875,-2.140625 C 4.6875,-3.40625 3.703125,-4.46875 2.5,-4.46875 C 1.25,-4.46875 0.28125,-3.375 0.28125,-2.140625 C 0.28125,-0.84375 1.3125,0.109375 2.484375,0.109375 C 3.6875,0.109375 4.6875,-0.875 4.6875,-2.140625 z M 2.5,-0.140625 C 2.0625,-0.140625 1.625,-0.34375 1.359375,-0.8125 C 1.109375,-1.25 1.109375,-1.859375 1.109375,-2.21875 C 1.109375,-2.609375 1.109375,-3.140625 1.34375,-3.578125 C 1.609375,-4.03125 2.078125,-4.25 2.484375,-4.25 C 2.921875,-4.25 3.34375,-4.03125 3.609375,-3.59375 C 3.875,-3.171875 3.875,-2.59375 3.875,-2.21875 C 3.875,-1.859375 3.875,-1.3125 3.65625,-0.875 C 3.421875,-0.421875 2.984375,-0.140625 2.5,-0.140625 z"
                 style="stroke:none" />
            </symbol>
            <symbol
               style="overflow:visible"
               id="textext-757c57f6-3"
               overflow="visible">
              <path
                 id="path5154"
                 d="M 1.71875,-0.78125 L 1.71875,-2.3125 C 1.71875,-3.296875 2.140625,-4.1875 2.890625,-4.1875 C 2.953125,-4.1875 2.984375,-4.1875 3,-4.171875 C 2.96875,-4.171875 2.765625,-4.046875 2.765625,-3.78125 C 2.765625,-3.515625 2.984375,-3.359375 3.203125,-3.359375 C 3.375,-3.359375 3.625,-3.484375 3.625,-3.796875 C 3.625,-4.109375 3.3125,-4.40625 2.890625,-4.40625 C 2.15625,-4.40625 1.796875,-3.734375 1.671875,-3.3125 L 1.671875,-4.40625 L 0.28125,-4.296875 L 0.28125,-3.984375 C 0.984375,-3.984375 1.0625,-3.921875 1.0625,-3.421875 L 1.0625,-0.75 C 1.0625,-0.3125 0.953125,-0.3125 0.28125,-0.3125 L 0.28125,0 C 0.671875,-0.015625 1.140625,-0.03125 1.421875,-0.03125 C 1.8125,-0.03125 2.28125,-0.03125 2.6875,0 L 2.6875,-0.3125 L 2.46875,-0.3125 C 1.734375,-0.3125 1.71875,-0.421875 1.71875,-0.78125 z"
                 style="stroke:none" />
            </symbol>
            <symbol
               style="overflow:visible"
               id="textext-757c57f6-4"
               overflow="visible">
              <path
                 id="path5157"
                 d="M 3.890625,-2.296875 C 4.109375,-2.296875 4.140625,-2.296875 4.140625,-2.515625 C 4.140625,-3.5 3.59375,-4.46875 2.359375,-4.46875 C 1.203125,-4.46875 0.28125,-3.4375 0.28125,-2.1875 C 0.28125,-0.859375 1.328125,0.109375 2.46875,0.109375 C 3.6875,0.109375 4.140625,-1 4.140625,-1.1875 C 4.140625,-1.28125 4.0625,-1.3125 4,-1.3125 C 3.921875,-1.3125 3.890625,-1.25 3.875,-1.171875 C 3.53125,-0.140625 2.625,-0.140625 2.53125,-0.140625 C 2.03125,-0.140625 1.640625,-0.4375 1.40625,-0.8125 C 1.109375,-1.28125 1.109375,-1.9375 1.109375,-2.296875 L 3.890625,-2.296875 z M 1.109375,-2.515625 C 1.171875,-4 2.015625,-4.25 2.359375,-4.25 C 3.375,-4.25 3.484375,-2.90625 3.484375,-2.515625 L 1.109375,-2.515625 z"
                 style="stroke:none" />
            </symbol>
          </g>
        </defs>
        <g
           id="textext-757c57f6-5">
          <g
             id="g5160"
             style="fill:#000000;fill-opacity:1">
            <use
               height="37.433071"
               width="72.866142"
               id="use5162"
               y="134.765"
               x="223.43201"
               xlink:href="#textext-757c57f6-1" />
            <use
               height="37.433071"
               width="72.866142"
               id="use5164"
               y="134.765"
               x="230.62698"
               xlink:href="#textext-757c57f6-2" />
            <use
               height="37.433071"
               width="72.866142"
               id="use5166"
               y="134.765"
               x="235.60829"
               xlink:href="#textext-757c57f6-3" />
            <use
               height="37.433071"
               width="72.866142"
               id="use5168"
               y="134.765"
               x="239.51064"
               xlink:href="#textext-757c57f6-4" />
          </g>
        </g>
      </g>
      <g
         ns0:text="MALU"
         ns0:preamble=""
         transform="matrix(2.32065,0,0,2.32065,1305.5163,784.13288)"
         id="g5414">
        <defs
           id="defs5416">
          <g
             id="g5418">
            <symbol
               style="overflow:visible"
               overflow="visible"
               id="textext-8d71be3a-0">
              <path
                 style="stroke:none"
                 d=""
                 id="path5421" />
            </symbol>
            <symbol
               style="overflow:visible"
               overflow="visible"
               id="textext-8d71be3a-1">
              <path
                 style="stroke:none"
                 d="M 2.40625,-6.59375 C 2.3125,-6.8125 2.28125,-6.8125 2.046875,-6.8125 L 0.375,-6.8125 L 0.375,-6.5 L 0.609375,-6.5 C 1.375,-6.5 1.390625,-6.390625 1.390625,-6.03125 L 1.390625,-1.046875 C 1.390625,-0.78125 1.390625,-0.3125 0.375,-0.3125 L 0.375,0 C 0.71875,-0.015625 1.203125,-0.03125 1.53125,-0.03125 C 1.859375,-0.03125 2.359375,-0.015625 2.703125,0 L 2.703125,-0.3125 C 1.671875,-0.3125 1.671875,-0.78125 1.671875,-1.046875 L 1.671875,-6.421875 L 1.6875,-6.421875 L 4.09375,-0.21875 C 4.140625,-0.09375 4.1875,0 4.28125,0 C 4.390625,0 4.421875,-0.078125 4.46875,-0.1875 L 6.921875,-6.5 L 6.921875,-6.5 L 6.921875,-0.78125 C 6.921875,-0.421875 6.90625,-0.3125 6.140625,-0.3125 L 5.90625,-0.3125 L 5.90625,0 C 6.265625,-0.03125 6.953125,-0.03125 7.34375,-0.03125 C 7.71875,-0.03125 8.390625,-0.03125 8.765625,0 L 8.765625,-0.3125 L 8.515625,-0.3125 C 7.75,-0.3125 7.734375,-0.421875 7.734375,-0.78125 L 7.734375,-6.03125 C 7.734375,-6.390625 7.75,-6.5 8.515625,-6.5 L 8.765625,-6.5 L 8.765625,-6.8125 L 7.078125,-6.8125 C 6.8125,-6.8125 6.8125,-6.796875 6.75,-6.625 L 4.5625,-1 L 2.40625,-6.59375 z"
                 id="path5424" />
            </symbol>
            <symbol
               style="overflow:visible"
               overflow="visible"
               id="textext-8d71be3a-2">
              <path
                 style="stroke:none"
                 d="M 3.96875,-6.9375 C 3.921875,-7.0625 3.890625,-7.140625 3.734375,-7.140625 C 3.578125,-7.140625 3.546875,-7.078125 3.5,-6.9375 L 1.4375,-0.984375 C 1.25,-0.46875 0.859375,-0.3125 0.3125,-0.3125 L 0.3125,0 C 0.546875,-0.015625 0.984375,-0.03125 1.328125,-0.03125 C 1.640625,-0.03125 2.15625,-0.015625 2.484375,0 L 2.484375,-0.3125 C 1.984375,-0.3125 1.734375,-0.5625 1.734375,-0.8125 C 1.734375,-0.84375 1.75,-0.953125 1.75,-0.96875 L 2.21875,-2.265625 L 4.671875,-2.265625 L 5.203125,-0.75 C 5.21875,-0.703125 5.234375,-0.640625 5.234375,-0.609375 C 5.234375,-0.3125 4.671875,-0.3125 4.40625,-0.3125 L 4.40625,0 C 4.765625,-0.03125 5.46875,-0.03125 5.84375,-0.03125 C 6.265625,-0.03125 6.734375,-0.015625 7.140625,0 L 7.140625,-0.3125 L 6.96875,-0.3125 C 6.375,-0.3125 6.234375,-0.375 6.125,-0.703125 L 3.96875,-6.9375 z M 3.4375,-5.828125 L 4.5625,-2.578125 L 2.328125,-2.578125 L 3.4375,-5.828125 z"
                 id="path5427" />
            </symbol>
            <symbol
               style="overflow:visible"
               overflow="visible"
               id="textext-8d71be3a-3">
              <path
                 style="stroke:none"
                 d="M 5.796875,-2.578125 L 5.546875,-2.578125 C 5.4375,-1.5625 5.296875,-0.3125 3.546875,-0.3125 L 2.734375,-0.3125 C 2.265625,-0.3125 2.25,-0.375 2.25,-0.703125 L 2.25,-6.015625 C 2.25,-6.359375 2.25,-6.5 3.1875,-6.5 L 3.515625,-6.5 L 3.515625,-6.8125 C 3.15625,-6.78125 2.25,-6.78125 1.84375,-6.78125 C 1.453125,-6.78125 0.671875,-6.78125 0.328125,-6.8125 L 0.328125,-6.5 L 0.5625,-6.5 C 1.328125,-6.5 1.359375,-6.390625 1.359375,-6.03125 L 1.359375,-0.78125 C 1.359375,-0.421875 1.328125,-0.3125 0.5625,-0.3125 L 0.328125,-0.3125 L 0.328125,0 L 5.515625,0 L 5.796875,-2.578125 z"
                 id="path5430" />
            </symbol>
            <symbol
               style="overflow:visible"
               overflow="visible"
               id="textext-8d71be3a-4">
              <path
                 style="stroke:none"
                 d="M 5.796875,-2.296875 C 5.796875,-0.890625 4.828125,-0.09375 3.890625,-0.09375 C 3.421875,-0.09375 2.25,-0.34375 2.25,-2.234375 L 2.25,-6.03125 C 2.25,-6.390625 2.265625,-6.5 3.03125,-6.5 L 3.265625,-6.5 L 3.265625,-6.8125 C 2.921875,-6.78125 2.1875,-6.78125 1.796875,-6.78125 C 1.421875,-6.78125 0.671875,-6.78125 0.328125,-6.8125 L 0.328125,-6.5 L 0.5625,-6.5 C 1.328125,-6.5 1.359375,-6.390625 1.359375,-6.03125 L 1.359375,-2.265625 C 1.359375,-0.875 2.515625,0.21875 3.875,0.21875 C 5.015625,0.21875 5.90625,-0.703125 6.078125,-1.84375 C 6.109375,-2.046875 6.109375,-2.140625 6.109375,-2.53125 L 6.109375,-5.71875 C 6.109375,-6.046875 6.109375,-6.5 7.140625,-6.5 L 7.140625,-6.8125 C 6.78125,-6.796875 6.296875,-6.78125 5.96875,-6.78125 C 5.609375,-6.78125 5.140625,-6.796875 4.78125,-6.8125 L 4.78125,-6.5 C 5.796875,-6.5 5.796875,-6.03125 5.796875,-5.765625 L 5.796875,-2.296875 z"
                 id="path5433" />
            </symbol>
          </g>
        </defs>
        <g
           id="textext-8d71be3a-5">
          <g
             style="fill:#000000;fill-opacity:1"
             id="g5436">
            <use
               height="37.433071"
               width="72.866142"
               xlink:href="#textext-8d71be3a-1"
               x="223.43201"
               y="134.765"
               id="use5438" />
            <use
               height="37.433071"
               width="72.866142"
               xlink:href="#textext-8d71be3a-2"
               x="232.56471"
               y="134.765"
               id="use5440" />
            <use
               height="37.433071"
               width="72.866142"
               xlink:href="#textext-8d71be3a-3"
               x="240.03667"
               y="134.765"
               id="use5442" />
            <use
               height="37.433071"
               width="72.866142"
               xlink:href="#textext-8d71be3a-4"
               x="246.26329"
               y="134.765"
               id="use5444" />
          </g>
        </g>
      </g>
    </g>
    <path
       style="fill:none;fill-rule:evenodd;stroke:#000000;stroke-width:2;stroke-linecap:butt;stroke-linejoin:miter;marker-start:none;marker-end:none;stroke-opacity:1"
       d="M 1929.5551,1094.8816 L 1947.2716,1094.8816 L 1947.2716,1059.4485 L 1911.8385,1059.4485"
       id="path5688"
       sodipodi:nodetypes="cccc" />
    <g
       transform="matrix(0,1,-1,0,1851.6023,1049.8189)"
       id="g6319"
       inkscape:label="Layer 1">
      <path
         inkscape:label="AND Gate"
         d="M 9.6297497,56.692931 L 9.6297497,70.866131 C 9.6297497,70.866131 16.71645,70.866131 20.25975,70.866131 C 23.80305,70.866131 27.34635,67.322831 27.34635,63.779531 C 27.34635,60.236231 23.80305,56.692931 20.25975,56.692931 C 16.71645,56.692931 9.6002497,56.627631 9.6297497,56.692931 z M 9.6297497,60.236231 L 2.54305,60.236231 L 2.54305,60.236231 M 9.6297497,67.322831 L 2.54305,67.322831 M 27.34625,63.779531 L 34.43285,63.779531"
         style="fill:none;fill-rule:evenodd;stroke:#000000;stroke-width:1px;stroke-linecap:butt;stroke-linejoin:miter;stroke-opacity:1"
         id="AND" />
    </g>
    <path
       style="fill:none;fill-rule:evenodd;stroke:#000000;stroke-width:2;stroke-linecap:butt;stroke-linejoin:miter;stroke-opacity:1"
       d="M 1918.9252,1020.4722 L 1918.9252,1038.1887 L 1791.3661,1038.1887 L 1791.3661,1059.4485"
       id="path6899"
       sodipodi:nodetypes="cccc" />
    <g
       id="g11004"
       transform="translate(17.416253,13.381538)">
      <use
         x="0"
         y="0"
         xlink:href="#g11263"
         id="use2425"
         transform="matrix(-1,0,0,1,3700.5089,-25.01174)"
         width="72.866142"
         height="37.433071" />
      <g
         id="g2753"
         ns0:preamble=""
         ns0:text="B"
         transform="matrix(1.91,0,0,1.91,1425.6984,756.19535)">
        <defs
           id="defs2755">
          <g
             id="g2757">
            <symbol
               style="overflow:visible"
               id="textext-76c6b44b-0"
               overflow="visible">
              <path
                 id="path2760"
                 d=""
                 style="stroke:none" />
            </symbol>
            <symbol
               style="overflow:visible"
               id="textext-76c6b44b-1"
               overflow="visible">
              <path
                 id="path2763"
                 d="M 2.21875,-3.65625 L 2.21875,-6.09375 C 2.21875,-6.4375 2.234375,-6.5 2.703125,-6.5 L 3.9375,-6.5 C 4.90625,-6.5 5.25,-5.65625 5.25,-5.125 C 5.25,-4.484375 4.765625,-3.65625 3.65625,-3.65625 L 2.21875,-3.65625 z M 4.5625,-3.5625 C 5.53125,-3.75 6.21875,-4.390625 6.21875,-5.125 C 6.21875,-5.984375 5.296875,-6.8125 4,-6.8125 L 0.359375,-6.8125 L 0.359375,-6.5 L 0.59375,-6.5 C 1.359375,-6.5 1.390625,-6.390625 1.390625,-6.03125 L 1.390625,-0.78125 C 1.390625,-0.421875 1.359375,-0.3125 0.59375,-0.3125 L 0.359375,-0.3125 L 0.359375,0 L 4.265625,0 C 5.59375,0 6.484375,-0.890625 6.484375,-1.828125 C 6.484375,-2.6875 5.671875,-3.4375 4.5625,-3.5625 z M 3.953125,-0.3125 L 2.703125,-0.3125 C 2.234375,-0.3125 2.21875,-0.375 2.21875,-0.703125 L 2.21875,-3.421875 L 4.09375,-3.421875 C 5.078125,-3.421875 5.5,-2.5 5.5,-1.828125 C 5.5,-1.125 4.96875,-0.3125 3.953125,-0.3125 z"
                 style="stroke:none" />
            </symbol>
          </g>
        </defs>
        <g
           id="textext-76c6b44b-2">
          <g
             id="g2766"
             style="fill:#000000;fill-opacity:1">
            <use
               height="37.433071"
               width="72.866142"
               id="use2768"
               y="134.765"
               x="223.43201"
               xlink:href="#textext-76c6b44b-1" />
          </g>
        </g>
      </g>
    </g>
    <g
       id="g13195"
       transform="translate(42.251151,-50.606377)">
      <g
         inkscape:label="Layer 1"
         id="use9200"
         transform="translate(1626.3782,957.6928)">
        <path
           style="fill:none;fill-rule:evenodd;stroke:#000000;stroke-width:1px;stroke-linecap:butt;stroke-linejoin:miter;stroke-opacity:1"
           d="M 2.5430421,77.952824 L 2.5430421,56.692924 L 37.976142,56.692924 L 55.692742,67.322824 L 37.976142,77.952824 L 2.5430421,77.952824 z"
           id="path13167"
           sodipodi:nodetypes="cccccc"
           inkscape:label="Label" />
      </g>
      <use
         height="37.433071"
         width="72.866142"
         transform="translate(-208.29441,53.149557)"
         id="use9217"
         xlink:href="#g2630"
         y="0"
         x="0" />
    </g>
    <g
       id="g13200"
       transform="translate(42.251157,-50.606406)">
      <g
         inkscape:label="Layer 1"
         id="use9202"
         transform="translate(1626.3781,1003.7559)">
        <path
           style="fill:none;fill-rule:evenodd;stroke:#000000;stroke-width:1px;stroke-linecap:butt;stroke-linejoin:miter;stroke-opacity:1"
           d="M 2.5430421,77.952824 L 2.5430421,56.692924 L 37.976142,56.692924 L 55.692742,67.322824 L 37.976142,77.952824 L 2.5430421,77.952824 z"
           id="path13163"
           sodipodi:nodetypes="cccccc"
           inkscape:label="Label" />
      </g>
      <use
         height="37.433071"
         width="72.866142"
         transform="translate(-208.7188,63.988194)"
         id="use9243"
         xlink:href="#g2753"
         y="0"
         x="0" />
    </g>
    <g
       id="g13353"
       transform="translate(42.25117,16.716756)">
      <g
         inkscape:label="Layer 1"
         id="use9204"
         transform="translate(1626.3781,854.93698)">
        <path
           style="fill:none;fill-rule:evenodd;stroke:#000000;stroke-width:1px;stroke-linecap:butt;stroke-linejoin:miter;stroke-opacity:1"
           d="M 2.5430421,77.952824 L 2.5430421,56.692924 L 37.976142,56.692924 L 55.692742,67.322824 L 37.976142,77.952824 L 2.5430421,77.952824 z"
           id="path13171"
           sodipodi:nodetypes="cccccc"
           inkscape:label="Label" />
      </g>
      <g
         transform="translate(2.96156e-2,-42.519677)"
         id="g13173">
        <g
           transform="matrix(1.5471,0,0,1.5471,1286.2364,761.55441)"
           ns0:text="mode"
           ns0:preamble=""
           id="g9427">
          <defs
             id="defs9429">
            <g
               id="g9431">
              <symbol
                 overflow="visible"
                 id="textext-a5711e1f-0"
                 style="overflow:visible">
                <path
                   style="stroke:none"
                   d=""
                   id="path9434" />
              </symbol>
              <symbol
                 overflow="visible"
                 id="textext-a5711e1f-1"
                 style="overflow:visible">
                <path
                   style="stroke:none"
                   d="M 1.09375,-3.421875 L 1.09375,-0.75 C 1.09375,-0.3125 0.984375,-0.3125 0.3125,-0.3125 L 0.3125,0 C 0.671875,-0.015625 1.171875,-0.03125 1.453125,-0.03125 C 1.703125,-0.03125 2.21875,-0.015625 2.5625,0 L 2.5625,-0.3125 C 1.890625,-0.3125 1.78125,-0.3125 1.78125,-0.75 L 1.78125,-2.59375 C 1.78125,-3.625 2.5,-4.1875 3.125,-4.1875 C 3.765625,-4.1875 3.875,-3.65625 3.875,-3.078125 L 3.875,-0.75 C 3.875,-0.3125 3.765625,-0.3125 3.09375,-0.3125 L 3.09375,0 C 3.4375,-0.015625 3.953125,-0.03125 4.21875,-0.03125 C 4.46875,-0.03125 5,-0.015625 5.328125,0 L 5.328125,-0.3125 C 4.671875,-0.3125 4.5625,-0.3125 4.5625,-0.75 L 4.5625,-2.59375 C 4.5625,-3.625 5.265625,-4.1875 5.90625,-4.1875 C 6.53125,-4.1875 6.640625,-3.65625 6.640625,-3.078125 L 6.640625,-0.75 C 6.640625,-0.3125 6.53125,-0.3125 5.859375,-0.3125 L 5.859375,0 C 6.203125,-0.015625 6.71875,-0.03125 6.984375,-0.03125 C 7.25,-0.03125 7.765625,-0.015625 8.109375,0 L 8.109375,-0.3125 C 7.59375,-0.3125 7.34375,-0.3125 7.328125,-0.609375 L 7.328125,-2.515625 C 7.328125,-3.375 7.328125,-3.671875 7.015625,-4.03125 C 6.875,-4.203125 6.546875,-4.40625 5.96875,-4.40625 C 5.140625,-4.40625 4.6875,-3.8125 4.53125,-3.421875 C 4.390625,-4.296875 3.65625,-4.40625 3.203125,-4.40625 C 2.46875,-4.40625 2,-3.984375 1.71875,-3.359375 L 1.71875,-4.40625 L 0.3125,-4.296875 L 0.3125,-3.984375 C 1.015625,-3.984375 1.09375,-3.921875 1.09375,-3.421875 z"
                   id="path9437" />
              </symbol>
              <symbol
                 overflow="visible"
                 id="textext-a5711e1f-2"
                 style="overflow:visible">
                <path
                   style="stroke:none"
                   d="M 4.6875,-2.140625 C 4.6875,-3.40625 3.703125,-4.46875 2.5,-4.46875 C 1.25,-4.46875 0.28125,-3.375 0.28125,-2.140625 C 0.28125,-0.84375 1.3125,0.109375 2.484375,0.109375 C 3.6875,0.109375 4.6875,-0.875 4.6875,-2.140625 z M 2.5,-0.140625 C 2.0625,-0.140625 1.625,-0.34375 1.359375,-0.8125 C 1.109375,-1.25 1.109375,-1.859375 1.109375,-2.21875 C 1.109375,-2.609375 1.109375,-3.140625 1.34375,-3.578125 C 1.609375,-4.03125 2.078125,-4.25 2.484375,-4.25 C 2.921875,-4.25 3.34375,-4.03125 3.609375,-3.59375 C 3.875,-3.171875 3.875,-2.59375 3.875,-2.21875 C 3.875,-1.859375 3.875,-1.3125 3.65625,-0.875 C 3.421875,-0.421875 2.984375,-0.140625 2.5,-0.140625 z"
                   id="path9440" />
              </symbol>
              <symbol
                 overflow="visible"
                 id="textext-a5711e1f-3"
                 style="overflow:visible">
                <path
                   style="stroke:none"
                   d="M 3.78125,-0.546875 L 3.78125,0.109375 L 5.25,0 L 5.25,-0.3125 C 4.5625,-0.3125 4.46875,-0.375 4.46875,-0.875 L 4.46875,-6.921875 L 3.046875,-6.8125 L 3.046875,-6.5 C 3.734375,-6.5 3.8125,-6.4375 3.8125,-5.9375 L 3.8125,-3.78125 C 3.53125,-4.140625 3.09375,-4.40625 2.5625,-4.40625 C 1.390625,-4.40625 0.34375,-3.421875 0.34375,-2.140625 C 0.34375,-0.875 1.3125,0.109375 2.453125,0.109375 C 3.09375,0.109375 3.53125,-0.234375 3.78125,-0.546875 z M 3.78125,-3.21875 L 3.78125,-1.171875 C 3.78125,-1 3.78125,-0.984375 3.671875,-0.8125 C 3.375,-0.328125 2.9375,-0.109375 2.5,-0.109375 C 2.046875,-0.109375 1.6875,-0.375 1.453125,-0.75 C 1.203125,-1.15625 1.171875,-1.71875 1.171875,-2.140625 C 1.171875,-2.5 1.1875,-3.09375 1.46875,-3.546875 C 1.6875,-3.859375 2.0625,-4.1875 2.609375,-4.1875 C 2.953125,-4.1875 3.375,-4.03125 3.671875,-3.59375 C 3.78125,-3.421875 3.78125,-3.40625 3.78125,-3.21875 z"
                   id="path9443" />
              </symbol>
              <symbol
                 overflow="visible"
                 id="textext-a5711e1f-4"
                 style="overflow:visible">
                <path
                   style="stroke:none"
                   d="M 3.890625,-2.296875 C 4.109375,-2.296875 4.140625,-2.296875 4.140625,-2.515625 C 4.140625,-3.5 3.59375,-4.46875 2.359375,-4.46875 C 1.203125,-4.46875 0.28125,-3.4375 0.28125,-2.1875 C 0.28125,-0.859375 1.328125,0.109375 2.46875,0.109375 C 3.6875,0.109375 4.140625,-1 4.140625,-1.1875 C 4.140625,-1.28125 4.0625,-1.3125 4,-1.3125 C 3.921875,-1.3125 3.890625,-1.25 3.875,-1.171875 C 3.53125,-0.140625 2.625,-0.140625 2.53125,-0.140625 C 2.03125,-0.140625 1.640625,-0.4375 1.40625,-0.8125 C 1.109375,-1.28125 1.109375,-1.9375 1.109375,-2.296875 L 3.890625,-2.296875 z M 1.109375,-2.515625 C 1.171875,-4 2.015625,-4.25 2.359375,-4.25 C 3.375,-4.25 3.484375,-2.90625 3.484375,-2.515625 L 1.109375,-2.515625 z"
                   id="path9446" />
              </symbol>
            </g>
          </defs>
          <g
             id="textext-a5711e1f-5">
            <g
               style="fill:#000000;fill-opacity:1"
               id="g9449">
              <use
                 xlink:href="#textext-a5711e1f-1"
                 x="223.43201"
                 y="134.765"
                 id="use9451"
                 width="72.866142"
                 height="37.433071" />
              <use
                 xlink:href="#textext-a5711e1f-2"
                 x="231.73384"
                 y="134.765"
                 id="use9453"
                 width="72.866142"
                 height="37.433071" />
            </g>
            <g
               style="fill:#000000;fill-opacity:1"
               id="g9455">
              <use
                 xlink:href="#textext-a5711e1f-3"
                 x="236.99408"
                 y="134.765"
                 id="use9457"
                 width="72.866142"
                 height="37.433071" />
              <use
                 xlink:href="#textext-a5711e1f-4"
                 x="242.52931"
                 y="134.765"
                 id="use9459"
                 width="72.866142"
                 height="37.433071" />
            </g>
          </g>
        </g>
      </g>
    </g>
    <g
       id="g13275"
       transform="translate(42.25117,16.716756)">
      <g
         inkscape:label="Layer 1"
         id="g9197"
         transform="translate(1626.5057,826.60914)">
        <path
           style="fill:none;fill-rule:evenodd;stroke:#000000;stroke-width:1px;stroke-linecap:butt;stroke-linejoin:miter;stroke-opacity:1"
           d="M 2.5430421,77.952824 L 2.5430421,56.692924 L 37.976142,56.692924 L 55.692742,67.322824 L 37.976142,77.952824 L 2.5430421,77.952824 z"
           id="Label"
           sodipodi:nodetypes="cccccc"
           inkscape:label="Label" />
      </g>
      <g
         transform="matrix(1.719,0,0,1.719,1247.9051,667.44141)"
         ns0:text="start"
         ns0:preamble=""
         id="g9787">
        <defs
           id="defs9789">
          <g
             id="g9791">
            <symbol
               style="overflow:visible"
               overflow="visible"
               id="textext-a518a031-0">
              <path
                 style="stroke:none"
                 d=""
                 id="path9794" />
            </symbol>
            <symbol
               style="overflow:visible"
               overflow="visible"
               id="textext-a518a031-1">
              <path
                 style="stroke:none"
                 d="M 2.078125,-1.9375 C 2.296875,-1.890625 3.109375,-1.734375 3.109375,-1.015625 C 3.109375,-0.515625 2.765625,-0.109375 1.984375,-0.109375 C 1.140625,-0.109375 0.78125,-0.671875 0.59375,-1.53125 C 0.5625,-1.65625 0.5625,-1.6875 0.453125,-1.6875 C 0.328125,-1.6875 0.328125,-1.625 0.328125,-1.453125 L 0.328125,-0.125 C 0.328125,0.046875 0.328125,0.109375 0.4375,0.109375 C 0.484375,0.109375 0.5,0.09375 0.6875,-0.09375 C 0.703125,-0.109375 0.703125,-0.125 0.890625,-0.3125 C 1.328125,0.09375 1.78125,0.109375 1.984375,0.109375 C 3.125,0.109375 3.59375,-0.5625 3.59375,-1.28125 C 3.59375,-1.796875 3.296875,-2.109375 3.171875,-2.21875 C 2.84375,-2.546875 2.453125,-2.625 2.03125,-2.703125 C 1.46875,-2.8125 0.8125,-2.9375 0.8125,-3.515625 C 0.8125,-3.875 1.0625,-4.28125 1.921875,-4.28125 C 3.015625,-4.28125 3.078125,-3.375 3.09375,-3.078125 C 3.09375,-2.984375 3.1875,-2.984375 3.203125,-2.984375 C 3.34375,-2.984375 3.34375,-3.03125 3.34375,-3.21875 L 3.34375,-4.234375 C 3.34375,-4.390625 3.34375,-4.46875 3.234375,-4.46875 C 3.1875,-4.46875 3.15625,-4.46875 3.03125,-4.34375 C 3,-4.3125 2.90625,-4.21875 2.859375,-4.1875 C 2.484375,-4.46875 2.078125,-4.46875 1.921875,-4.46875 C 0.703125,-4.46875 0.328125,-3.796875 0.328125,-3.234375 C 0.328125,-2.890625 0.484375,-2.609375 0.75,-2.390625 C 1.078125,-2.140625 1.359375,-2.078125 2.078125,-1.9375 z"
                 id="path9797" />
            </symbol>
            <symbol
               style="overflow:visible"
               overflow="visible"
               id="textext-a518a031-2">
              <path
                 style="stroke:none"
                 d="M 1.71875,-3.984375 L 3.15625,-3.984375 L 3.15625,-4.296875 L 1.71875,-4.296875 L 1.71875,-6.125 L 1.46875,-6.125 C 1.46875,-5.3125 1.171875,-4.25 0.1875,-4.203125 L 0.1875,-3.984375 L 1.03125,-3.984375 L 1.03125,-1.234375 C 1.03125,-0.015625 1.96875,0.109375 2.328125,0.109375 C 3.03125,0.109375 3.3125,-0.59375 3.3125,-1.234375 L 3.3125,-1.796875 L 3.0625,-1.796875 L 3.0625,-1.25 C 3.0625,-0.515625 2.765625,-0.140625 2.390625,-0.140625 C 1.71875,-0.140625 1.71875,-1.046875 1.71875,-1.21875 L 1.71875,-3.984375 z"
                 id="path9800" />
            </symbol>
            <symbol
               style="overflow:visible"
               overflow="visible"
               id="textext-a518a031-3">
              <path
                 style="stroke:none"
                 d="M 3.3125,-0.75 C 3.359375,-0.359375 3.625,0.0625 4.09375,0.0625 C 4.3125,0.0625 4.921875,-0.078125 4.921875,-0.890625 L 4.921875,-1.453125 L 4.671875,-1.453125 L 4.671875,-0.890625 C 4.671875,-0.3125 4.421875,-0.25 4.3125,-0.25 C 3.984375,-0.25 3.9375,-0.703125 3.9375,-0.75 L 3.9375,-2.734375 C 3.9375,-3.15625 3.9375,-3.546875 3.578125,-3.921875 C 3.1875,-4.3125 2.6875,-4.46875 2.21875,-4.46875 C 1.390625,-4.46875 0.703125,-4 0.703125,-3.34375 C 0.703125,-3.046875 0.90625,-2.875 1.171875,-2.875 C 1.453125,-2.875 1.625,-3.078125 1.625,-3.328125 C 1.625,-3.453125 1.578125,-3.78125 1.109375,-3.78125 C 1.390625,-4.140625 1.875,-4.25 2.1875,-4.25 C 2.6875,-4.25 3.25,-3.859375 3.25,-2.96875 L 3.25,-2.609375 C 2.734375,-2.578125 2.046875,-2.546875 1.421875,-2.25 C 0.671875,-1.90625 0.421875,-1.390625 0.421875,-0.953125 C 0.421875,-0.140625 1.390625,0.109375 2.015625,0.109375 C 2.671875,0.109375 3.125,-0.296875 3.3125,-0.75 z M 3.25,-2.390625 L 3.25,-1.390625 C 3.25,-0.453125 2.53125,-0.109375 2.078125,-0.109375 C 1.59375,-0.109375 1.1875,-0.453125 1.1875,-0.953125 C 1.1875,-1.5 1.609375,-2.328125 3.25,-2.390625 z"
                 id="path9803" />
            </symbol>
            <symbol
               style="overflow:visible"
               overflow="visible"
               id="textext-a518a031-4">
              <path
                 style="stroke:none"
                 d="M 1.71875,-0.78125 L 1.71875,-2.3125 C 1.71875,-3.296875 2.140625,-4.1875 2.890625,-4.1875 C 2.953125,-4.1875 2.984375,-4.1875 3,-4.171875 C 2.96875,-4.171875 2.765625,-4.046875 2.765625,-3.78125 C 2.765625,-3.515625 2.984375,-3.359375 3.203125,-3.359375 C 3.375,-3.359375 3.625,-3.484375 3.625,-3.796875 C 3.625,-4.109375 3.3125,-4.40625 2.890625,-4.40625 C 2.15625,-4.40625 1.796875,-3.734375 1.671875,-3.3125 L 1.671875,-4.40625 L 0.28125,-4.296875 L 0.28125,-3.984375 C 0.984375,-3.984375 1.0625,-3.921875 1.0625,-3.421875 L 1.0625,-0.75 C 1.0625,-0.3125 0.953125,-0.3125 0.28125,-0.3125 L 0.28125,0 C 0.671875,-0.015625 1.140625,-0.03125 1.421875,-0.03125 C 1.8125,-0.03125 2.28125,-0.03125 2.6875,0 L 2.6875,-0.3125 L 2.46875,-0.3125 C 1.734375,-0.3125 1.71875,-0.421875 1.71875,-0.78125 z"
                 id="path9806" />
            </symbol>
          </g>
        </defs>
        <g
           id="textext-a518a031-5">
          <g
             style="fill:#000000;fill-opacity:1"
             id="g9809">
            <use
               height="37.433071"
               width="72.866142"
               xlink:href="#textext-a518a031-1"
               x="223.43201"
               y="134.765"
               id="use9811" />
            <use
               height="37.433071"
               width="72.866142"
               xlink:href="#textext-a518a031-2"
               x="227.36125"
               y="134.765"
               id="use9813" />
            <use
               height="37.433071"
               width="72.866142"
               xlink:href="#textext-a518a031-3"
               x="231.2357"
               y="134.765"
               id="use9815" />
            <use
               height="37.433071"
               width="72.866142"
               xlink:href="#textext-a518a031-4"
               x="236.21701"
               y="134.765"
               id="use9817" />
            <use
               height="37.433071"
               width="72.866142"
               xlink:href="#textext-a518a031-2"
               x="240.11935"
               y="134.765"
               id="use9819" />
          </g>
        </g>
      </g>
    </g>
    <g
       id="g13225"
       transform="translate(17.169278,-54.149647)">
      <g
         inkscape:label="Layer 1"
         id="use10005"
         transform="translate(2016.142,1056.9054)">
        <path
           style="fill:none;fill-rule:evenodd;stroke:#000000;stroke-width:1px;stroke-linecap:butt;stroke-linejoin:miter;stroke-opacity:1"
           d="M 2.5430421,77.952824 L 2.5430421,56.692924 L 37.976142,56.692924 L 55.692742,67.322824 L 37.976142,77.952824 L 2.5430421,77.952824 z"
           id="path13155"
           sodipodi:nodetypes="cccccc"
           inkscape:label="Label" />
      </g>
      <g
         id="g10193"
         ns0:preamble=""
         ns0:text="ready"
         transform="matrix(1.5471,0,0,1.5471,1676.2209,919.56257)">
        <defs
           id="defs10195">
          <g
             id="g10197">
            <symbol
               style="overflow:visible"
               id="textext-ad3746a2-0"
               overflow="visible">
              <path
                 id="path10200"
                 d=""
                 style="stroke:none" />
            </symbol>
            <symbol
               style="overflow:visible"
               id="textext-ad3746a2-1"
               overflow="visible">
              <path
                 id="path10203"
                 d="M 1.71875,-0.78125 L 1.71875,-2.3125 C 1.71875,-3.296875 2.140625,-4.1875 2.890625,-4.1875 C 2.953125,-4.1875 2.984375,-4.1875 3,-4.171875 C 2.96875,-4.171875 2.765625,-4.046875 2.765625,-3.78125 C 2.765625,-3.515625 2.984375,-3.359375 3.203125,-3.359375 C 3.375,-3.359375 3.625,-3.484375 3.625,-3.796875 C 3.625,-4.109375 3.3125,-4.40625 2.890625,-4.40625 C 2.15625,-4.40625 1.796875,-3.734375 1.671875,-3.3125 L 1.671875,-4.40625 L 0.28125,-4.296875 L 0.28125,-3.984375 C 0.984375,-3.984375 1.0625,-3.921875 1.0625,-3.421875 L 1.0625,-0.75 C 1.0625,-0.3125 0.953125,-0.3125 0.28125,-0.3125 L 0.28125,0 C 0.671875,-0.015625 1.140625,-0.03125 1.421875,-0.03125 C 1.8125,-0.03125 2.28125,-0.03125 2.6875,0 L 2.6875,-0.3125 L 2.46875,-0.3125 C 1.734375,-0.3125 1.71875,-0.421875 1.71875,-0.78125 z"
                 style="stroke:none" />
            </symbol>
            <symbol
               style="overflow:visible"
               id="textext-ad3746a2-2"
               overflow="visible">
              <path
                 id="path10206"
                 d="M 3.890625,-2.296875 C 4.109375,-2.296875 4.140625,-2.296875 4.140625,-2.515625 C 4.140625,-3.5 3.59375,-4.46875 2.359375,-4.46875 C 1.203125,-4.46875 0.28125,-3.4375 0.28125,-2.1875 C 0.28125,-0.859375 1.328125,0.109375 2.46875,0.109375 C 3.6875,0.109375 4.140625,-1 4.140625,-1.1875 C 4.140625,-1.28125 4.0625,-1.3125 4,-1.3125 C 3.921875,-1.3125 3.890625,-1.25 3.875,-1.171875 C 3.53125,-0.140625 2.625,-0.140625 2.53125,-0.140625 C 2.03125,-0.140625 1.640625,-0.4375 1.40625,-0.8125 C 1.109375,-1.28125 1.109375,-1.9375 1.109375,-2.296875 L 3.890625,-2.296875 z M 1.109375,-2.515625 C 1.171875,-4 2.015625,-4.25 2.359375,-4.25 C 3.375,-4.25 3.484375,-2.90625 3.484375,-2.515625 L 1.109375,-2.515625 z"
                 style="stroke:none" />
            </symbol>
            <symbol
               style="overflow:visible"
               id="textext-ad3746a2-3"
               overflow="visible">
              <path
                 id="path10209"
                 d="M 3.3125,-0.75 C 3.359375,-0.359375 3.625,0.0625 4.09375,0.0625 C 4.3125,0.0625 4.921875,-0.078125 4.921875,-0.890625 L 4.921875,-1.453125 L 4.671875,-1.453125 L 4.671875,-0.890625 C 4.671875,-0.3125 4.421875,-0.25 4.3125,-0.25 C 3.984375,-0.25 3.9375,-0.703125 3.9375,-0.75 L 3.9375,-2.734375 C 3.9375,-3.15625 3.9375,-3.546875 3.578125,-3.921875 C 3.1875,-4.3125 2.6875,-4.46875 2.21875,-4.46875 C 1.390625,-4.46875 0.703125,-4 0.703125,-3.34375 C 0.703125,-3.046875 0.90625,-2.875 1.171875,-2.875 C 1.453125,-2.875 1.625,-3.078125 1.625,-3.328125 C 1.625,-3.453125 1.578125,-3.78125 1.109375,-3.78125 C 1.390625,-4.140625 1.875,-4.25 2.1875,-4.25 C 2.6875,-4.25 3.25,-3.859375 3.25,-2.96875 L 3.25,-2.609375 C 2.734375,-2.578125 2.046875,-2.546875 1.421875,-2.25 C 0.671875,-1.90625 0.421875,-1.390625 0.421875,-0.953125 C 0.421875,-0.140625 1.390625,0.109375 2.015625,0.109375 C 2.671875,0.109375 3.125,-0.296875 3.3125,-0.75 z M 3.25,-2.390625 L 3.25,-1.390625 C 3.25,-0.453125 2.53125,-0.109375 2.078125,-0.109375 C 1.59375,-0.109375 1.1875,-0.453125 1.1875,-0.953125 C 1.1875,-1.5 1.609375,-2.328125 3.25,-2.390625 z"
                 style="stroke:none" />
            </symbol>
            <symbol
               style="overflow:visible"
               id="textext-ad3746a2-4"
               overflow="visible">
              <path
                 id="path10212"
                 d="M 3.78125,-0.546875 L 3.78125,0.109375 L 5.25,0 L 5.25,-0.3125 C 4.5625,-0.3125 4.46875,-0.375 4.46875,-0.875 L 4.46875,-6.921875 L 3.046875,-6.8125 L 3.046875,-6.5 C 3.734375,-6.5 3.8125,-6.4375 3.8125,-5.9375 L 3.8125,-3.78125 C 3.53125,-4.140625 3.09375,-4.40625 2.5625,-4.40625 C 1.390625,-4.40625 0.34375,-3.421875 0.34375,-2.140625 C 0.34375,-0.875 1.3125,0.109375 2.453125,0.109375 C 3.09375,0.109375 3.53125,-0.234375 3.78125,-0.546875 z M 3.78125,-3.21875 L 3.78125,-1.171875 C 3.78125,-1 3.78125,-0.984375 3.671875,-0.8125 C 3.375,-0.328125 2.9375,-0.109375 2.5,-0.109375 C 2.046875,-0.109375 1.6875,-0.375 1.453125,-0.75 C 1.203125,-1.15625 1.171875,-1.71875 1.171875,-2.140625 C 1.171875,-2.5 1.1875,-3.09375 1.46875,-3.546875 C 1.6875,-3.859375 2.0625,-4.1875 2.609375,-4.1875 C 2.953125,-4.1875 3.375,-4.03125 3.671875,-3.59375 C 3.78125,-3.421875 3.78125,-3.40625 3.78125,-3.21875 z"
                 style="stroke:none" />
            </symbol>
            <symbol
               style="overflow:visible"
               id="textext-ad3746a2-5"
               overflow="visible">
              <path
                 id="path10215"
                 d="M 4.140625,-3.34375 C 4.390625,-3.984375 4.90625,-3.984375 5.0625,-3.984375 L 5.0625,-4.296875 C 4.828125,-4.28125 4.546875,-4.265625 4.3125,-4.265625 C 4.140625,-4.265625 3.671875,-4.28125 3.453125,-4.296875 L 3.453125,-3.984375 C 3.765625,-3.984375 3.921875,-3.8125 3.921875,-3.5625 C 3.921875,-3.453125 3.90625,-3.4375 3.859375,-3.3125 L 2.84375,-0.875 L 1.75,-3.546875 C 1.703125,-3.65625 1.6875,-3.6875 1.6875,-3.734375 C 1.6875,-3.984375 2.046875,-3.984375 2.25,-3.984375 L 2.25,-4.296875 C 1.984375,-4.28125 1.328125,-4.265625 1.15625,-4.265625 C 0.890625,-4.265625 0.484375,-4.28125 0.1875,-4.296875 L 0.1875,-3.984375 C 0.671875,-3.984375 0.859375,-3.984375 1,-3.640625 L 2.5,0 C 2.4375,0.125 2.296875,0.453125 2.25,0.59375 C 2.03125,1.140625 1.75,1.828125 1.109375,1.828125 C 1.0625,1.828125 0.828125,1.828125 0.640625,1.640625 C 0.953125,1.609375 1.03125,1.390625 1.03125,1.21875 C 1.03125,0.96875 0.84375,0.8125 0.609375,0.8125 C 0.40625,0.8125 0.1875,0.9375 0.1875,1.234375 C 0.1875,1.6875 0.609375,2.046875 1.109375,2.046875 C 1.734375,2.046875 2.140625,1.46875 2.375,0.90625 L 4.140625,-3.34375 z"
                 style="stroke:none" />
            </symbol>
          </g>
        </defs>
        <g
           id="textext-ad3746a2-6">
          <g
             id="g10218"
             style="fill:#000000;fill-opacity:1">
            <use
               height="37.433071"
               width="72.866142"
               id="use10220"
               y="134.765"
               x="223.43201"
               xlink:href="#textext-ad3746a2-1" />
            <use
               height="37.433071"
               width="72.866142"
               id="use10222"
               y="134.765"
               x="227.33435"
               xlink:href="#textext-ad3746a2-2" />
            <use
               height="37.433071"
               width="72.866142"
               id="use10224"
               y="134.765"
               x="231.76173"
               xlink:href="#textext-ad3746a2-3" />
            <use
               height="37.433071"
               width="72.866142"
               id="use10226"
               y="134.765"
               x="236.74303"
               xlink:href="#textext-ad3746a2-4" />
            <use
               height="37.433071"
               width="72.866142"
               id="use10228"
               y="134.765"
               x="242.27824"
               xlink:href="#textext-ad3746a2-5" />
          </g>
        </g>
      </g>
    </g>
    <g
       id="g13205"
       transform="translate(17.216279,13.191585)">
      <g
         inkscape:label="Layer 1"
         id="use10003"
         transform="translate(2016.142,947.06294)">
        <path
           style="fill:none;fill-rule:evenodd;stroke:#000000;stroke-width:1px;stroke-linecap:butt;stroke-linejoin:miter;stroke-opacity:1"
           d="M 2.5430421,77.952824 L 2.5430421,56.692924 L 37.976142,56.692924 L 55.692742,67.322824 L 37.976142,77.952824 L 2.5430421,77.952824 z"
           id="path13159"
           sodipodi:nodetypes="cccccc"
           inkscape:label="Label" />
      </g>
      <g
         transform="matrix(1.719,0,0,1.719,1637.6219,787.89521)"
         ns0:text="out"
         ns0:preamble=""
         id="g10644">
        <defs
           id="defs10646">
          <g
             id="g10648">
            <symbol
               style="overflow:visible"
               overflow="visible"
               id="textext-4e92e464-0">
              <path
                 style="stroke:none"
                 d=""
                 id="path10651" />
            </symbol>
            <symbol
               style="overflow:visible"
               overflow="visible"
               id="textext-4e92e464-1">
              <path
                 style="stroke:none"
                 d="M 4.6875,-2.140625 C 4.6875,-3.40625 3.703125,-4.46875 2.5,-4.46875 C 1.25,-4.46875 0.28125,-3.375 0.28125,-2.140625 C 0.28125,-0.84375 1.3125,0.109375 2.484375,0.109375 C 3.6875,0.109375 4.6875,-0.875 4.6875,-2.140625 z M 2.5,-0.140625 C 2.0625,-0.140625 1.625,-0.34375 1.359375,-0.8125 C 1.109375,-1.25 1.109375,-1.859375 1.109375,-2.21875 C 1.109375,-2.609375 1.109375,-3.140625 1.34375,-3.578125 C 1.609375,-4.03125 2.078125,-4.25 2.484375,-4.25 C 2.921875,-4.25 3.34375,-4.03125 3.609375,-3.59375 C 3.875,-3.171875 3.875,-2.59375 3.875,-2.21875 C 3.875,-1.859375 3.875,-1.3125 3.65625,-0.875 C 3.421875,-0.421875 2.984375,-0.140625 2.5,-0.140625 z"
                 id="path10654" />
            </symbol>
            <symbol
               style="overflow:visible"
               overflow="visible"
               id="textext-4e92e464-2">
              <path
                 style="stroke:none"
                 d="M 3.890625,-0.78125 L 3.890625,0.109375 L 5.328125,0 L 5.328125,-0.3125 C 4.640625,-0.3125 4.5625,-0.375 4.5625,-0.875 L 4.5625,-4.40625 L 3.09375,-4.296875 L 3.09375,-3.984375 C 3.78125,-3.984375 3.875,-3.921875 3.875,-3.421875 L 3.875,-1.65625 C 3.875,-0.78125 3.390625,-0.109375 2.65625,-0.109375 C 1.828125,-0.109375 1.78125,-0.578125 1.78125,-1.09375 L 1.78125,-4.40625 L 0.3125,-4.296875 L 0.3125,-3.984375 C 1.09375,-3.984375 1.09375,-3.953125 1.09375,-3.078125 L 1.09375,-1.578125 C 1.09375,-0.796875 1.09375,0.109375 2.609375,0.109375 C 3.171875,0.109375 3.609375,-0.171875 3.890625,-0.78125 z"
                 id="path10657" />
            </symbol>
            <symbol
               style="overflow:visible"
               overflow="visible"
               id="textext-4e92e464-3">
              <path
                 style="stroke:none"
                 d="M 1.71875,-3.984375 L 3.15625,-3.984375 L 3.15625,-4.296875 L 1.71875,-4.296875 L 1.71875,-6.125 L 1.46875,-6.125 C 1.46875,-5.3125 1.171875,-4.25 0.1875,-4.203125 L 0.1875,-3.984375 L 1.03125,-3.984375 L 1.03125,-1.234375 C 1.03125,-0.015625 1.96875,0.109375 2.328125,0.109375 C 3.03125,0.109375 3.3125,-0.59375 3.3125,-1.234375 L 3.3125,-1.796875 L 3.0625,-1.796875 L 3.0625,-1.25 C 3.0625,-0.515625 2.765625,-0.140625 2.390625,-0.140625 C 1.71875,-0.140625 1.71875,-1.046875 1.71875,-1.21875 L 1.71875,-3.984375 z"
                 id="path10660" />
            </symbol>
          </g>
        </defs>
        <g
           id="textext-4e92e464-4">
          <g
             style="fill:#000000;fill-opacity:1"
             id="g10663">
            <use
               height="37.433071"
               width="72.866142"
               xlink:href="#textext-4e92e464-1"
               x="223.43201"
               y="134.765"
               id="use10665" />
            <use
               height="37.433071"
               width="72.866142"
               xlink:href="#textext-4e92e464-2"
               x="228.4133"
               y="134.765"
               id="use10667" />
            <use
               height="37.433071"
               width="72.866142"
               xlink:href="#textext-4e92e464-3"
               x="233.94852"
               y="134.765"
               id="use10669" />
          </g>
        </g>
      </g>
    </g>
    <g
       transform="translate(264.70085,-42.019987)"
       id="g12899"
       inkscape:label="Layer 1">
      <path
         sodipodi:nodetypes="ccccc"
         id="path12807"
         d="M 1721.5472,1051.8622 L 1721.5472,1087.2953 L 1735.7204,1080.2087 L 1735.7204,1058.9488 L 1721.5472,1051.8622 z"
         style="fill:none;fill-rule:evenodd;stroke:#000000;stroke-width:1px;stroke-linecap:butt;stroke-linejoin:miter;stroke-opacity:1" />
      <path
         sodipodi:nodetypes="cc"
         id="path12822"
         d="M 1728.6338,1055.4054 L 1728.6338,1048.3188"
         style="fill:none;fill-rule:evenodd;stroke:#000000;stroke-width:1px;stroke-linecap:butt;stroke-linejoin:miter;stroke-opacity:1" />
      <path
         id="path12824"
         d="M 1721.5472,1062.4921 L 1714.4606,1062.4921"
         style="fill:none;fill-rule:evenodd;stroke:#000000;stroke-width:1px;stroke-linecap:butt;stroke-linejoin:miter;stroke-opacity:1" />
      <path
         id="path12826"
         d="M 1721.5472,1076.6653 L 1714.4606,1076.6653"
         style="fill:none;fill-rule:evenodd;stroke:#000000;stroke-width:1px;stroke-linecap:butt;stroke-linejoin:miter;stroke-opacity:1" />
    </g>
    <path
       style="fill:none;fill-rule:evenodd;stroke:#000000;stroke-width:2;stroke-linecap:butt;stroke-linejoin:miter;stroke-opacity:1"
       d="M 1911.8386,1020.4722 L 1940.185,1020.4722"
       id="path12913"
       sodipodi:nodetypes="cc" />
    <path
       style="fill:none;fill-rule:evenodd;stroke:#000000;stroke-width:2;stroke-linecap:butt;stroke-linejoin:miter;stroke-opacity:1"
       d="M 1954.3582,1020.4722 L 1986.248,1020.4722"
       id="path12915"
       sodipodi:nodetypes="cc" />
    <path
       style="fill:none;fill-rule:evenodd;stroke:#000000;stroke-width:2;stroke-linecap:butt;stroke-linejoin:miter;stroke-opacity:1"
       d="M 1911.8385,981.49574 L 1947.2716,981.49574 L 1947.2716,1013.3856"
       id="path12917"
       sodipodi:nodetypes="ccc" />
    <path
       style="fill:none;fill-rule:evenodd;stroke:#000000;stroke-width:2;stroke-linecap:butt;stroke-linejoin:miter;stroke-opacity:1"
       d="M 1986.248,1034.6454 L 1947.2716,1034.6454 L 1947.2716,1059.4485"
       id="path12919"
       sodipodi:nodetypes="ccc" />
    <path
       style="fill:none;fill-rule:evenodd;stroke:#000000;stroke-width:2;stroke-linecap:butt;stroke-linejoin:miter;stroke-opacity:1"
       d="M 2000.4212,1027.5588 L 2035.8543,1027.5588"
       id="path12921" />
    <path
       style="fill:none;fill-rule:evenodd;stroke:#000000;stroke-width:1px;stroke-linecap:butt;stroke-linejoin:miter;stroke-opacity:1"
       d="M 1724.0904,910.62988 L 1840.9724,910.62991"
       id="path12976"
       sodipodi:nodetypes="cc" />
    <g
       id="g13378"
       transform="translate(70.318948,16.716484)">
      <path
         d="M 1841.5197,883.28342 L 1841.5197,904.54332 L 1770.6535,904.54332 L 1770.6535,883.28342 L 1841.5197,883.28342 z M 1770.6535,883.28342 L 1777.7401,893.91342 L 1770.6535,904.54332"
         style="fill:none;fill-rule:evenodd;stroke:#000000;stroke-width:1px;stroke-linecap:butt;stroke-linejoin:miter;stroke-opacity:1"
         id="path2482" />
      <use
         height="37.433071"
         width="72.866142"
         transform="translate(156.62999,-1.8644263e-2)"
         id="use13273"
         xlink:href="#g9787"
         y="0"
         x="0" />
    </g>
    <path
       style="fill:none;fill-rule:evenodd;stroke:#000000;stroke-width:1px;stroke-linecap:butt;stroke-linejoin:miter;stroke-opacity:1"
       d="M 1724.0904,938.97633 L 1840.9724,938.97636"
       id="path13326"
       sodipodi:nodetypes="cc" />
    <g
       id="g13382"
       transform="translate(70.435764,16.736506)">
      <path
         d="M 1841.5196,911.62988 L 1841.5196,932.88978 L 1770.6534,932.88978 L 1770.6534,911.62988 L 1841.5196,911.62988 z M 1770.6534,911.62988 L 1777.74,922.25988 L 1770.6534,932.88978"
         style="fill:none;fill-rule:evenodd;stroke:#000000;stroke-width:1px;stroke-linecap:butt;stroke-linejoin:miter;stroke-opacity:1"
         id="path13299" />
      <use
         height="37.433071"
         width="72.866142"
         transform="translate(155.93139,-2.4180725e-5)"
         id="use13351"
         xlink:href="#g13173"
         y="0"
         x="0" />
    </g>
    <use
       x="0"
       y="0"
       xlink:href="#g12899"
       id="use13386"
       transform="translate(-209.05513,-46.0629)"
       width="72.866142"
       height="37.433071" />
    <path
       style="fill:none;fill-rule:evenodd;stroke:#000000;stroke-width:2;stroke-linecap:butt;stroke-linejoin:miter;stroke-opacity:1"
       d="M 1791.3661,981.49574 L 1840.9724,981.49574"
       id="path13388"
       sodipodi:nodetypes="cc" />
    <path
       style="fill:none;fill-rule:evenodd;stroke:#000000;stroke-width:2;stroke-linecap:butt;stroke-linejoin:miter;stroke-opacity:1"
       d="M 1918.9252,981.49574 L 1918.9252,1002.7556 L 1759.4763,1002.7556 L 1759.4763,988.58236 L 1777.1929,988.58236"
       id="path13390"
       sodipodi:nodetypes="ccccc" />
    <path
       style="fill:none;fill-rule:evenodd;stroke:#000000;stroke-width:2;stroke-linecap:butt;stroke-linejoin:miter;stroke-opacity:1"
       d="M 1840.9724,1020.4722 L 1723.4578,1020.4724"
       id="path13392"
       sodipodi:nodetypes="cc" />
    <path
       style="fill:none;fill-rule:evenodd;stroke:#000000;stroke-width:2;stroke-linecap:butt;stroke-linejoin:miter;stroke-opacity:1"
       d="M 1723.4754,974.4094 L 1777.1929,974.40913"
       id="path13394"
       sodipodi:nodetypes="cc" />
    <path
       style="fill:none;fill-rule:evenodd;stroke:#000000;stroke-width:1px;stroke-linecap:butt;stroke-linejoin:miter;stroke-opacity:1"
       d="M 1993.3346,1013.3858 L 1993.3346,938.97636 L 1911.8385,938.97636"
       id="path13398"
       sodipodi:nodetypes="ccc" />
    <path
       style="fill:none;fill-rule:evenodd;stroke:#000000;stroke-width:1px;stroke-linecap:butt;stroke-linejoin:miter;stroke-opacity:1"
       d="M 1784.2795,967.32282 L 1784.2795,910.62991"
       id="path13400"
       sodipodi:nodetypes="cc" />
    <g
       id="g15753"
       transform="translate(15.409994,10.89443)">
      <g
         id="g15747">
        <g
           id="g15437"
           style="fill:#000000;fill-opacity:1"
           transform="matrix(1.39239,0,0,1.39239,1474.2282,800.57196)">
          <use
             id="use15439"
             y="134.765"
             x="223.43201"
             xlink:href="#textext-8a4cbf58-3"
             width="72.866142"
             height="37.433071" />
        </g>
        <g
           id="g15441"
           style="fill:#000000;fill-opacity:1"
           transform="matrix(1.39239,0,0,1.39239,1474.2282,801.72503)">
          <use
             id="use15443"
             y="134.765"
             x="236.162"
             xlink:href="#textext-8a4cbf58-1"
             width="72.866142"
             height="37.433071" />
        </g>
      </g>
    </g>
    <path
       sodipodi:type="arc"
       style="fill:#000000;fill-rule:evenodd;stroke:#000000;stroke-width:1px;stroke-linecap:butt;stroke-linejoin:miter;stroke-opacity:1"
       id="path15760"
       sodipodi:cx="51.377953"
       sodipodi:cy="-74.181099"
       sodipodi:rx="1.7716535"
       sodipodi:ry="1.7716535"
       d="M 53.149606,-74.181099 A 1.7716535,1.7716535 0 1 1 49.606299,-74.181099 A 1.7716535,1.7716535 0 1 1 53.149606,-74.181099 z"
       transform="translate(1732.9015,1076.9367)" />
    <use
       x="0"
       y="0"
       xlink:href="#path15760"
       id="use15762"
       transform="translate(134.64568,-21.259799)"
       width="72.866142"
       height="37.433071" />
    <use
       x="0"
       y="0"
       xlink:href="#path15760"
       id="use15764"
       transform="translate(134.64568,17.716579)"
       width="72.866142"
       height="37.433071" />
    <use
       x="0"
       y="0"
       xlink:href="#path15760"
       id="use15768"
       transform="translate(162.99213,56.692957)"
       width="72.866142"
       height="37.433071" />
    <use
       x="0"
       y="0"
       xlink:href="#path15760"
       id="use15770"
       transform="translate(4.6640158e-5,-92.125637)"
       width="72.866142"
       height="37.433071" />
    <path
       style="fill:none;fill-rule:evenodd;stroke:#000000;stroke-width:1px;stroke-linecap:butt;stroke-linejoin:miter;stroke-opacity:1"
       d="M 2035.8543,1070.0788 L 2018.1378,1070.0788"
       id="path15772" />
    <rect
       style="fill:none;stroke:#666666;stroke-width:2;stroke-linecap:butt;stroke-linejoin:miter;stroke-miterlimit:4;stroke-dasharray:none"
       id="rect8886"
       width="276.33075"
       height="283.465"
       x="1741.8069"
       y="892.91333" />
    <g
       transform="matrix(1.253151,0,0,1.253151,1499.6289,823.72553)"
       ns0:text="$0$"
       ns0:preamble="/home/anthony/thesis/images/inkscape-tex-preamble.tex"
       id="g17257">
      <defs
         id="defs17259">
        <g
           id="g17261">
          <symbol
             overflow="visible"
             id="textext-b39ef03c-0"
             style="overflow:visible">
            <path
               style="stroke:none"
               d=""
               id="path17264" />
          </symbol>
          <symbol
             overflow="visible"
             id="textext-b39ef03c-1"
             style="overflow:visible">
            <path
               style="stroke:none"
               d="M 4.578125,-3.1875 C 4.578125,-3.984375 4.53125,-4.78125 4.1875,-5.515625 C 3.734375,-6.484375 2.90625,-6.640625 2.5,-6.640625 C 1.890625,-6.640625 1.171875,-6.375 0.75,-5.453125 C 0.4375,-4.765625 0.390625,-3.984375 0.390625,-3.1875 C 0.390625,-2.4375 0.421875,-1.546875 0.84375,-0.78125 C 1.265625,0.015625 2,0.21875 2.484375,0.21875 C 3.015625,0.21875 3.78125,0.015625 4.21875,-0.9375 C 4.53125,-1.625 4.578125,-2.40625 4.578125,-3.1875 z M 2.484375,0 C 2.09375,0 1.5,-0.25 1.328125,-1.203125 C 1.21875,-1.796875 1.21875,-2.71875 1.21875,-3.3125 C 1.21875,-3.953125 1.21875,-4.609375 1.296875,-5.140625 C 1.484375,-6.328125 2.234375,-6.421875 2.484375,-6.421875 C 2.8125,-6.421875 3.46875,-6.234375 3.65625,-5.25 C 3.765625,-4.6875 3.765625,-3.9375 3.765625,-3.3125 C 3.765625,-2.5625 3.765625,-1.890625 3.65625,-1.25 C 3.5,-0.296875 2.9375,0 2.484375,0 z"
               id="path17267" />
          </symbol>
        </g>
      </defs>
      <g
         id="textext-b39ef03c-2">
        <g
           style="fill:#000000;fill-opacity:1"
           id="g17270">
          <use
             xlink:href="#textext-b39ef03c-1"
             x="223.43201"
             y="134.765"
             id="use17272"
             width="478.34644"
             height="318.89764" />
        </g>
      </g>
    </g>
    <g
       id="g17864"
       ns0:preamble="/home/anthony/thesis/images/inkscape-tex-preamble.tex"
       ns0:text="$1$"
       transform="matrix(1.253151,0,0,1.253151,1499.5701,809.68909)">
      <defs
         id="defs17866">
        <g
           id="g17868">
          <symbol
             id="textext-76af60d8-0"
             overflow="visible"
             style="overflow:visible">
            <path
               id="path17871"
               d=""
               style="stroke:none" />
          </symbol>
          <symbol
             id="textext-76af60d8-1"
             overflow="visible"
             style="overflow:visible">
            <path
               id="path17874"
               d="M 2.9375,-6.375 C 2.9375,-6.625 2.9375,-6.640625 2.703125,-6.640625 C 2.078125,-6 1.203125,-6 0.890625,-6 L 0.890625,-5.6875 C 1.09375,-5.6875 1.671875,-5.6875 2.1875,-5.953125 L 2.1875,-0.78125 C 2.1875,-0.421875 2.15625,-0.3125 1.265625,-0.3125 L 0.953125,-0.3125 L 0.953125,0 C 1.296875,-0.03125 2.15625,-0.03125 2.5625,-0.03125 C 2.953125,-0.03125 3.828125,-0.03125 4.171875,0 L 4.171875,-0.3125 L 3.859375,-0.3125 C 2.953125,-0.3125 2.9375,-0.421875 2.9375,-0.78125 L 2.9375,-6.375 z"
               style="stroke:none" />
          </symbol>
        </g>
      </defs>
      <g
         id="textext-76af60d8-2">
        <g
           id="g17877"
           style="fill:#000000;fill-opacity:1">
          <use
             id="use17879"
             y="134.765"
             x="223.43201"
             xlink:href="#textext-76af60d8-1"
             width="478.34644"
             height="318.89764" />
        </g>
      </g>
    </g>
    <use
       x="0"
       y="0"
       xlink:href="#g17257"
       id="use18189"
       transform="translate(209.05511,46.062996)"
       width="478.34644"
       height="318.89764" />
    <use
       x="0"
       y="0"
       xlink:href="#g17864"
       id="use18191"
       transform="translate(209.05517,46.063069)"
       width="478.34644"
       height="318.89764" />
  </g>
</svg>
